<?xml version="1.0" encoding="UTF-8"?>
<svg id="Layer_1" data-name="Layer 1" xmlns="http://www.w3.org/2000/svg" version="1.1" viewBox="0 0 1078.99 272.55">
  <defs>
    <style>
      .cls-1 {
        fill: #db5d69;
      }

      .cls-1, .cls-2 {
        stroke-width: 0px;
      }

      .cls-2 {
        fill: #f76670;
      }
    </style>
  </defs>
  <g>
    <circle class="cls-2" cx="673.9" cy="136.28" r="134.41"/>
    <path class="cls-1" d="M673.9,272.55c-75.14,0-136.27-61.13-136.27-136.27S598.76,0,673.9,0s136.27,61.13,136.27,136.27-61.13,136.27-136.27,136.27ZM673.9,3.74c-73.08,0-132.54,59.46-132.54,132.54s59.46,132.54,132.54,132.54,132.54-59.46,132.54-132.54S746.98,3.74,673.9,3.74h0Z"/>
  </g>
  <g>
    <path class="cls-2" d="M136.27,1.87C62.04,1.87,1.86,62.05,1.86,136.28s60.18,134.41,134.41,134.41c24.49,0,47.43-6.58,67.2-18.03v18.03h67.2v-134.41C270.67,62.05,210.49,1.87,136.26,1.87h.01Z"/>
    <path class="cls-1" d="M272.55,272.55h-70.94v-16.7c-19.98,10.93-42.5,16.7-65.34,16.7C61.13,272.55,0,211.42,0,136.28S61.13,0,136.27,0s136.27,61.13,136.27,136.27v136.27h0ZM205.34,268.82h63.47v-132.54C268.81,63.2,209.35,3.74,136.27,3.74S3.73,63.2,3.73,136.28s59.46,132.54,132.54,132.54c23.26,0,46.17-6.15,66.27-17.77l2.8-1.62v19.4h0Z"/>
  </g>
  <g>
    <path class="cls-2" d="M472.29,1.87h-201.61v268.81h67.2v-134.41h134.41c37.12,0,67.2-30.09,67.2-67.2S509.4,1.87,472.29,1.87h0Z"/>
    <path class="cls-1" d="M339.75,272.55h-70.94V0h203.48c38.08,0,69.07,30.99,69.07,69.07s-30.99,69.07-69.07,69.07h-132.54v134.41h0ZM272.55,268.82h63.47v-134.41h136.27c36.03,0,65.34-29.31,65.34-65.34S508.32,3.73,472.29,3.73h-199.74v265.08h0Z"/>
  </g>
  <g>
    <polygon class="cls-2" points="1077.12 1.87 808.3 1.87 808.3 69.08 909.11 69.08 909.11 270.69 976.31 270.69 976.31 69.08 1077.12 69.08 1077.12 1.87"/>
    <path class="cls-1" d="M978.18,272.55h-70.94V70.94h-100.8V0h272.55v70.94h-100.81v201.61h0ZM910.97,268.82h63.47V67.21h100.81V3.74h-265.08v63.47h100.8v201.61h0Z"/>
  </g>
</svg>