<?xml version="1.0" encoding="UTF-8"?>
<svg id="Layer_1" data-name="Layer 1" xmlns="http://www.w3.org/2000/svg" version="1.1" viewBox="0 0 26 26">
  <path d="M12.9995.1784C5.9183.1784.1774,5.9193.1774,13.0005s5.7409,12.8221,12.8221,12.8221c2.3362,0,4.5246-.6277,6.4106-1.72v1.72h6.4106v-12.8221c0-7.0812-5.7409-12.8221-12.8221-12.8221h.001Z" fill="#424242" stroke-width="0"/>
  <path d="M26,26h-6.7673v-1.5931c-1.906,1.0427-4.0543,1.5931-6.2331,1.5931C5.8315,26,0,20.1685,0,13.0005S5.8315,0,12.9995,0s12.9995,5.8315,12.9995,12.9995v12.9995h0l.001.001ZM19.5885,25.6442h6.0547v-12.6437C25.6432,6.029,19.971.3568,12.9995.3568S.3558,6.029.3558,13.0005s5.6722,12.6437,12.6437,12.6437c2.2189,0,4.4044-.5867,6.3218-1.6952l.2671-.1545v1.8507h0v-.001Z" fill="#424242" stroke-width="0"/>
</svg>