<?xml version="1.0" encoding="UTF-8"?>
<svg xmlns="http://www.w3.org/2000/svg" version="1.1" viewBox="0 0 924.4 1000">
  <g id="Layer_1" data-name="Layer 1">
    <path d="M344.1,287c-70.3,0-135.4,22-188.9,59.5V70.2H0v858.3h155.2v-42.6c53.5,37.5,118.6,59.5,188.9,59.5,181.8,0,329.2-147.4,329.2-329.2s-147.4-329.2-329.2-329.2h0ZM329.3,801.6c-99.1,0-179.5-83.1-179.5-185.6s80.4-185.6,179.5-185.6,179.5,83.1,179.5,185.6-80.4,185.6-179.5,185.6h0Z" fill="#78ddda" stroke-width="0"/>
  </g>
  <g id="Layer_2" data-name="Layer 2">
    <path d="M860.1018,95.2248c.3809,7.8491.3354,15.7871.0052,23.8026-1.4961,36.3197,26.3852,67.5965,41.8204,100.3763,17.6396,37.4613,22.5638,83.8331,22.4717,123.4928-.1071,46.1634-12.0113,86.6435-20.9345,127.6681-21.2031,97.4823-26.7208,213.6013-15.1978,319.8355,4.9678,45.7995,12.9234,94.8571,5.2444,138.4992-5.5198,31.3708-18.3837,52.8005-32.036,63.1269-25.0573,18.953-54.2006,3.4177-73.4314-39.1436-22.495-49.7857-29.905-128.8219-26.8074-201.4339,3.0976-72.612,15.2786-141.018,26.843-208.6483,11.5643-67.6303,22.7956-137.3548,23.8242-210.2969,1.1189-79.3462-9.8843-156.3745-17.7448-233.5439-3.1151-30.5815-4.814-68.3605,5.4353-88.3265,8.0239-15.6307,20.1654-12.3281,29.3965-1.0448,21.9377,26.8149,29.6524,55.5736,31.1113,85.6365Z" fill="#78ddda" stroke-width="0"/>
  </g>
</svg>