<?xml version="1.0" encoding="UTF-8"?>
<svg id="Layer_1" data-name="Layer 1" xmlns="http://www.w3.org/2000/svg" version="1.1" viewBox="0 0 26 26">
  <rect width="26" height="26" rx="5" ry="5" fill="#e9e9e9" stroke-width="0"/>
  <g>
    <path d="M13,23c-5.514,0-10.0001-4.4859-10.0001-9.9999S7.486,3,13,3s10.0001,4.4861,10.0001,10.0001-4.4861,9.9999-10.0001,9.9999ZM13,3.3176C7.6611,3.3176,3.3175,7.6612,3.3175,13.0001s4.3436,9.6824,9.6825,9.6824,9.6825-4.3436,9.6825-9.6824S18.3389,3.3176,13,3.3176Z" fill="#f6917d" stroke-width="0"/>
    <circle cx="10.0078" cy="12.3103" r=".6897" fill="#f6917d" stroke-width="0"/>
    <circle cx="15.9922" cy="12.3103" r=".6897" fill="#f6917d" stroke-width="0"/>
    <path d="M13.0003,20.1909c-1.9542,0-3.5441-.9843-3.5441-2.1944,0-.0602.0036-.1234.0107-.1836.1529-1.1471,1.6719-2.0107,3.5334-2.0107s3.3805.8635,3.5331,2.0082c.0074.0626.011.1259.011.1861,0,1.2101-1.5898,2.1944-3.5441,2.1944ZM13.0003,16.1198c-1.6751,0-3.0888.7612-3.2183,1.7328-.0053.0453-.0082.0961-.0082.1439,0,1.0349,1.4473,1.8769,3.2265,1.8769s3.2265-.842,3.2265-1.8769c0-.0478-.0029-.0986-.0085-.1464-.1292-.9691-1.5429-1.7303-3.218-1.7303Z" fill="#f6917d" stroke-width="0"/>
    <path d="M13.0003,18.9017c-1.3949,0-2.6926-.3529-3.4717-.9437-.0454-.0344-.069-.0909-.0614-.1476.1526-1.1447,1.6716-2.0082,3.5331-2.0082s3.3805.8635,3.5331,2.0082c.0076.0568-.016.1132-.0614.1476-.779.5908-2.0767.9437-3.4717.9437ZM9.798,17.7614c.7336.5167,1.9204.8228,3.2023.8228s2.4687-.3061,3.2023-.8228c-.2027-.9276-1.5799-1.6416-3.2023-1.6416s-2.9997.7141-3.2023,1.6416Z" fill="#f6917d" stroke-width="0"/>
    <path d="M12.1923,15.967l-.3173-.0121c.2428-6.3906-2.8508-11.8724-2.8821-11.927l.2755-.1579c.0318.0554,3.1702,5.6128,2.9238,12.097Z" fill="#f6917d" stroke-width="0"/>
    <path d="M13.8077,15.967c-.2464-6.4842,2.8921-12.0416,2.9238-12.097l.2755.1579c-.0313.0546-3.125,5.5365-2.8821,11.927l-.3173.0121Z" fill="#f6917d" stroke-width="0"/>
  </g>
</svg>