<?xml version="1.0" encoding="UTF-8"?>
<svg id="Layer_1" data-name="Layer 1" xmlns="http://www.w3.org/2000/svg" version="1.1" viewBox="0 0 26 26">
  <rect width="26" height="26" rx="5" ry="5" fill="#e9e9e9" stroke-width="0"/>
  <g>
    <circle cx="11.0347" cy="15.9785" r=".453" fill="#5a2a92" stroke-width="0"/>
    <circle cx="14.9654" cy="15.9785" r=".453" fill="#5a2a92" stroke-width="0"/>
    <ellipse cx="13" cy="18.3989" rx="1.0572" ry=".8403" fill="#5a2a92" stroke-width="0"/>
    <path d="M12.451,19.8923c-.3601,0-.6531-.293-.6531-.6532,0-.0576.0466-.1043.1043-.1043s.1043.0466.1043.1043c0,.2452.1994.4446.4445.4446.2453,0,.4447-.1994.4447-.4446,0-.0576.0466-.1043.1043-.1043s.1043.0466.1043.1043c0,.3601-.2931.6532-.6533.6532Z" fill="#5a2a92" stroke-width="0"/>
    <path d="M13.549,19.8923c-.3601,0-.6533-.293-.6533-.6532,0-.0576.0466-.1043.1043-.1043s.1043.0466.1043.1043c0,.2452.1994.4446.4447.4446s.4447-.1994.4447-.4446c0-.0576.0466-.1043.1043-.1043s.1043.0466.1043.1043c0,.3601-.2931.6532-.6533.6532Z" fill="#5a2a92" stroke-width="0"/>
    <path d="M13,23c-3.6218,0-6.5683-2.9466-6.5683-6.5684,0-1.0451.2528-2.0858.7315-3.0116-.4296-4.4523-.8466-9.8481-.4019-10.3482.053-.0594.1275-.0828.2096-.0669.7203.1431,3.0341,4.4887,3.9891,7.1833,1.3196-.4314,2.7606-.4314,4.0801,0,.9549-2.6946,3.269-7.0402,3.9893-7.1833.0827-.0159.1568.0075.2096.0669.4447.5003.0277,5.8961-.4019,10.3483.4785.9259.7313,1.9665.7313,3.0115,0,3.6218-2.9465,6.5684-6.5683,6.5684ZM6.9342,3.2067c-.0055,0-.0106.0006-.0157.0018-.2966.334-.1218,4.2501.4553,10.2221l.0029.0309-.0143.0275c-.4791.9159-.7221,1.906-.7221,2.9426,0,3.5068,2.853,6.3598,6.3597,6.3598s6.3597-2.853,6.3597-6.3598c0-1.0364-.2428-2.0264-.7219-2.9426l-.0143-.0274.0029-.0309c.5771-5.9719.7519-9.8881.4565-10.2205-.0049-.0012-.0102-.0018-.0159-.0018-.4473,0-2.7648,3.9804-3.864,7.1455l-.0342.0983-.0984-.0339c-1.3359-.46-2.805-.46-4.1408,0l-.0984.0339-.0342-.0983c-1.0992-3.1658-3.4173-7.1472-3.8628-7.1472Z" fill="#5a2a92" stroke-width="0"/>
  </g>
</svg>