<?xml version="1.0" encoding="UTF-8"?>
<svg id="Layer_1" data-name="Layer 1" xmlns="http://www.w3.org/2000/svg" version="1.1" viewBox="0 0 26 26">
  <rect width="26" height="26" rx="5" ry="5" fill="#e9e9e9" stroke-width="0"/>
  <g>
    <path d="M13,23c-5.514,0-10.0001-4.4859-10.0001-9.9999S7.486,3,13,3s10.0001,4.4861,10.0001,10.0001-4.4861,9.9999-10.0001,9.9999ZM13,3.3176C7.6611,3.3176,3.3175,7.6612,3.3175,13.0001s4.3436,9.6824,9.6825,9.6824,9.6825-4.3436,9.6825-9.6824S18.3389,3.3176,13,3.3176Z" fill="#762136" stroke-width="0"/>
    <circle cx="10.0079" cy="12.3104" r=".6897" fill="#762136" stroke-width="0"/>
    <circle cx="15.9922" cy="12.3104" r=".6897" fill="#762136" stroke-width="0"/>
    <path d="M13.0003,21.7511c-1.3569,0-2.461-1.3345-2.461-2.9744,0-.0778.0023-.16.0068-.2376.1006-1.5351,1.1786-2.7368,2.4542-2.7368s2.3535,1.2017,2.4542,2.7359c.0045.0785.0068.1606.0068.2385,0,1.6399-1.104,2.9744-2.461,2.9744ZM13.0003,16.1199c-1.1088,0-2.0476,1.0712-2.1372,2.4388-.0042.0704-.0062.1464-.0062.218,0,1.465.9615,2.6568,2.1434,2.6568s2.1434-1.1918,2.1434-2.6568c0-.0716-.002-.1476-.0062-.2189-.0896-1.3667-1.0284-2.4379-2.1372-2.4379Z" fill="#762136" stroke-width="0"/>
    <path d="M13.0003,18.5324c-.6745,0-1.2233-.6125-1.2233-1.3652,0-.0354.0011-.0726.0033-.1076.0501-.7055.5858-1.2572,1.22-1.2572s1.1702.5517,1.2199,1.256c.0023.0363.0034.0735.0034.1089,0,.7527-.5488,1.3652-1.2233,1.3652ZM13.0003,16.1199c-.4683,0-.8649.4221-.9032.9608-.0017.0276-.0025.058-.0025.0865,0,.5778.4063,1.0476.9057,1.0476s.9057-.4698.9057-1.0476c0-.0285-.0008-.0589-.0026-.0878-.038-.5374-.4346-.9595-.9031-.9595Z" fill="#762136" stroke-width="0"/>
  </g>
</svg>