<?xml version="1.0" encoding="utf-8"?>
<!-- Generator: Adobe Illustrator 15.0.0, SVG Export Plug-In . SVG Version: 6.00 Build 0)  -->
<!DOCTYPE svg PUBLIC "-//W3C//DTD SVG 1.1//EN" "http://www.w3.org/Graphics/SVG/1.1/DTD/svg11.dtd">
<svg version="1.1" id="Layer_1" xmlns="http://www.w3.org/2000/svg" xmlns:xlink="http://www.w3.org/1999/xlink" x="0px" y="0px"
	 width="200px" height="200px" viewBox="0 0 200 200" enable-background="new 0 0 200 200" xml:space="preserve">
<rect y="50" fill="#D4D3E8" width="100" height="24.294"/>
<rect y="98.587" fill="#D4D3E8" width="100" height="24.293"/>
<rect y="50" fill="#D4D3E8" width="24.294" height="100"/>
<path fill="#D4D3E8" d="M200,100c0,27.61-22.39,50-50,50h-50V50h50c0.55,0,1.1,0.01,1.65,0.03c6.75,0.22,13.17,1.78,18.989,4.42
	c5.511,2.5,10.48,5.97,14.71,10.2C194.4,73.69,200,86.19,200,100z"/>
<path fill="#D3CEB4" d="M139.374,71.086c0,21.897-4.852,39.65-10.819,39.65c-5.98,0-10.819-17.753-10.819-39.65
	c0-7.75,0.613-14.978,1.656-21.085h18.326C138.761,56.108,139.374,63.336,139.374,71.086L139.374,71.086L139.374,71.086z"/>
<path fill="#D3CEB4" d="M171.64,71.09c0,21.89-4.85,39.65-10.819,39.65c-5.98,0-10.82-17.76-10.82-39.65
	c0-7.74,0.61-14.96,1.65-21.06c6.75,0.22,13.17,1.78,18.989,4.42C171.28,59.51,171.64,65.15,171.64,71.09z"/>
</svg>
