<?xml version="1.0" encoding="UTF-8"?>
<svg id="Layer_1" data-name="Layer 1" xmlns="http://www.w3.org/2000/svg" version="1.1" viewBox="0 0 26 26">
  <rect width="26" height="26" rx="5" ry="5" fill="#e9e9e9" stroke-width="0"/>
  <g>
    <circle cx="11.8171" cy="9.2116" r=".2726" fill="#37bb9d" stroke-width="0"/>
    <circle cx="14.1828" cy="9.2116" r=".2726" fill="#37bb9d" stroke-width="0"/>
    <ellipse cx="13" cy="10.6682" rx=".6362" ry=".5057" fill="#37bb9d" stroke-width="0"/>
    <path d="M12.6696,11.5671c-.2167,0-.3932-.1764-.3932-.3932,0-.0347.0281-.0628.0628-.0628s.0628.0281.0628.0628c0,.1476.12.2676.2676.2676s.2676-.12.2676-.2676c0-.0347.0281-.0628.0628-.0628s.0628.0281.0628.0628c0,.2167-.1764.3932-.3932.3932Z" fill="#37bb9d" stroke-width="0"/>
    <path d="M13.3304,11.5671c-.2167,0-.3932-.1764-.3932-.3932,0-.0347.0281-.0628.0628-.0628s.0628.0281.0628.0628c0,.1476.12.2676.2676.2676.1475,0,.2675-.12.2675-.2676,0-.0347.0281-.0628.0628-.0628s.0628.0281.0628.0628c0,.2167-.1763.3932-.393.3932Z" fill="#37bb9d" stroke-width="0"/>
    <path d="M13,20.4689c-1.6631,0-3.151-1.0453-3.7166-2.6059h-1.3772c-1.6311,0-2.9581-1.327-2.9581-2.9581,0-.0382.0009-.0764.0023-.1143-1.1686-.4232-1.9504-1.5349-1.9504-2.7811,0-1.6311,1.327-2.9582,2.9581-2.9582h3.1127c.2185-2.0109,1.8977-3.5203,3.9292-3.5203s3.7107,1.5094,3.9292,3.5203h3.1127c1.6311,0,2.9581,1.327,2.9581,2.9582,0,1.2462-.7818,2.3579-1.9504,2.7811.0015.0379.0023.076.0023.1143,0,1.6311-1.327,2.9581-2.9581,2.9581h-1.3774c-.5655,1.5606-2.0534,2.6059-3.7165,2.6059ZM5.9581,9.1769c-1.5619,0-2.8326,1.2707-2.8326,2.8326,0,1.2084.7676,2.2847,1.9102,2.6781l.0447.0154-.0026.0473c-.0027.0511-.0043.1026-.0043.1545,0,1.5619,1.2707,2.8326,2.8326,2.8326h1.466l.0147.0421c.5365,1.5335,1.9884,2.5638,3.6131,2.5638s3.0767-1.0303,3.613-2.5638l.0147-.0421h1.4661c1.5619,0,2.8326-1.2707,2.8326-2.8326,0-.0519-.0016-.1033-.0043-.1545l-.0026-.0473.0447-.0154c1.1426-.3934,1.9102-1.4697,1.9102-2.6781,0-1.5619-1.2707-2.8326-2.8326-2.8326h-3.2266l-.0054-.0569c-.1863-1.9745-1.8243-3.4634-3.8099-3.4634s-3.6236,1.4889-3.8099,3.4634l-.0054.0569h-3.2266Z" fill="#37bb9d" stroke-width="0"/>
  </g>
</svg>