<?xml version="1.0" encoding="UTF-8"?>
<svg id="Layer_1" data-name="Layer 1" xmlns="http://www.w3.org/2000/svg" version="1.1" viewBox="0 0 26 26">
  <rect width="26" height="26" rx="5" ry="5" fill="#e9e9e9" stroke-width="0"/>
  <g>
    <path d="M13.0002,23c-5.5141,0-10.0002-4.4861-10.0002-10S7.4861,3,13.0002,3s9.9998,4.4861,9.9998,10-4.4859,10-9.9998,10ZM13.0002,3.3176C7.6611,3.3176,3.3176,7.6611,3.3176,13s4.3436,9.6824,9.6826,9.6824,9.6823-4.3436,9.6823-9.6824S18.3389,3.3176,13.0002,3.3176Z" fill="#1d9d51" stroke-width="0"/>
    <circle cx="10.0079" cy="12.3103" r=".6897" fill="#1d9d51" stroke-width="0"/>
    <circle cx="15.9921" cy="12.3103" r=".6897" fill="#1d9d51" stroke-width="0"/>
    <path d="M13.0002,20.1909c-1.9541,0-3.5439-.9845-3.5439-2.1944,0-.06.0036-.1237.0107-.1837.1529-1.1473,1.6719-2.0107,3.5332-2.0107s3.3806.8634,3.5332,2.0083c.0074.0626.0109.1262.0109.1861,0,1.2099-1.59,2.1944-3.5441,2.1944ZM13.0002,16.1197c-1.675,0-3.0886.761-3.2181,1.7326-.0053.0456-.0082.0963-.0082.1442,0,1.0349,1.4472,1.8769,3.2263,1.8769s3.2265-.842,3.2265-1.8769c0-.0481-.0028-.0989-.0084-.147-.1293-.9688-1.5429-1.7299-3.2181-1.7299Z" fill="#1d9d51" stroke-width="0"/>
    <path d="M13.0002,18.9016c-1.3949,0-2.6928-.3528-3.4715-.9437-.0454-.0346-.069-.0909-.0614-.1475.1526-1.145,1.6716-2.0083,3.5329-2.0083s3.3806.8634,3.5335,2.0083c.0074.0566-.0161.1129-.0617.1475-.7787.5909-2.0766.9437-3.4718.9437ZM9.798,17.7614c.7333.5164,1.9201.8226,3.2022.8226s2.4692-.3062,3.2026-.8226c-.2028-.9277-1.5801-1.6418-3.2026-1.6418s-2.9995.7141-3.2022,1.6418Z" fill="#1d9d51" stroke-width="0"/>
  </g>
</svg>