<?xml version="1.0" encoding="UTF-8"?>
<svg id="Layer_1" data-name="Layer 1" xmlns="http://www.w3.org/2000/svg" version="1.1" viewBox="0 0 26 26">
  <rect width="26" height="26" rx="5" ry="5" fill="#e9e9e9" stroke-width="0"/>
  <g>
    <path d="M13,23c-4.2715,0-7.7468-3.4752-7.7468-7.7468,0-.031.0011-.0617.002-.0925l.0017-.0559-.0014-.0191c-.0012-.0171-.0023-.0341-.0023-.0515V5.1322c0-1.1756.9565-2.1322,2.1323-2.1322s2.1322.9565,2.1322,2.1322v3.2002c1.074-.5409,2.2734-.8258,3.4823-.8258s2.4083.2849,3.4823.8258v-3.2002c0-1.1756.9565-2.1322,2.1322-2.1322s2.1323.9565,2.1323,2.1322v9.9021c0,.0174-.0011.0345-.0023.0515l-.0016.0257.0018.052c.0011.0299.002.0597.002.0897,0,4.2715-3.4752,7.7468-7.7468,7.7468ZM7.3855,3.246c-1.0401,0-1.8863.8461-1.8863,1.8861l.0019,10.037c-.001.028-.0019.056-.0019.0841,0,4.1359,3.3648,7.5008,7.5008,7.5008s7.5008-3.3648,7.5008-7.5008c0-.0271-.001-.0542-.0019-.0812l-.0018-.0626.0037-.0752V5.1322c0-1.04-.8461-1.8861-1.8863-1.8861s-1.8861.8461-1.8861,1.8861v3.6086l-.1813-.0974c-1.0837-.5828-2.3103-.8908-3.5471-.8908s-2.4633.308-3.5471.8908l-.1813.0974v-3.6086c0-1.04-.8461-1.8861-1.8861-1.8861Z" fill="#d33383" stroke-width="0"/>
    <circle cx="10.6821" cy="14.7189" r=".5343" fill="#d33383" stroke-width="0"/>
    <circle cx="15.3179" cy="14.7189" r=".5343" fill="#d33383" stroke-width="0"/>
    <ellipse cx="13" cy="17.5734" rx="1.2468" ry=".9911" fill="#d33383" stroke-width="0"/>
    <path d="M12.3527,19.3349c-.4249,0-.7705-.3456-.7705-.7703,0-.068.055-.123.123-.123s.123.055.123.123c0,.2891.2353.5243.5245.5243s.5243-.2352.5243-.5243c0-.068.055-.123.123-.123s.123.055.123.123c0,.4247-.3456.7703-.7703.7703Z" fill="#d33383" stroke-width="0"/>
    <path d="M13.6473,19.3349c-.4247,0-.7703-.3456-.7703-.7703,0-.068.055-.123.123-.123s.123.055.123.123c0,.2891.2352.5243.5243.5243s.5245-.2352.5245-.5243c0-.068.055-.123.123-.123s.123.055.123.123c0,.4247-.3456.7703-.7705.7703Z" fill="#d33383" stroke-width="0"/>
  </g>
</svg>