<?xml version="1.0" encoding="UTF-8"?>
<svg id="Layer_1" data-name="Layer 1" xmlns="http://www.w3.org/2000/svg" version="1.1" viewBox="0 0 26 26">
  <rect width="26" height="26" rx="5" ry="5" fill="#e9e9e9" stroke-width="0"/>
  <g>
    <circle cx="10.241" cy="13.1431" r=".636" fill="#f3c72f" stroke-width="0"/>
    <circle cx="15.7591" cy="13.1431" r=".636" fill="#f3c72f" stroke-width="0"/>
    <ellipse cx="13" cy="16.5408" rx="1.4841" ry="1.1797" fill="#f3c72f" stroke-width="0"/>
    <path d="M12.2294,18.6375c-.5056,0-.9169-.4114-.9169-.9171,0-.0809.0655-.1464.1464-.1464s.1464.0655.1464.1464c0,.3442.28.6243.6241.6243s.6243-.2801.6243-.6243c0-.0809.0655-.1464.1464-.1464s.1464.0655.1464.1464c0,.5057-.4114.9171-.9171.9171Z" fill="#f3c72f" stroke-width="0"/>
    <path d="M13.7706,18.6375c-.5056,0-.9169-.4114-.9169-.9171,0-.0809.0655-.1464.1464-.1464s.1464.0655.1464.1464c0,.3442.28.6243.6241.6243s.6241-.2801.6241-.6243c0-.0809.0655-.1464.1464-.1464s.1464.0655.1464.1464c0,.5057-.4114.9171-.9169.9171Z" fill="#f3c72f" stroke-width="0"/>
    <path d="M13.0001,23c-5.0844,0-9.221-4.1366-9.221-9.221,0-1.0329.1707-2.0486.5077-3.0203-.0848-.1101-.146-.2341-.1824-.3696l-1.622-6.0535c-.0992-.3702.0033-.7531.2744-1.024.2708-.2711.6536-.3736,1.024-.2744l6.0534,1.622c.1915.0513.3603.1517.4937.2927,1.7279-.5226,3.6156-.5229,5.3443,0,.1333-.141.3021-.2414.4936-.2927l6.0534-1.622c.3707-.0994.7532.0033,1.024.2744.2711.2709.3736.6539.2744,1.024l-1.622,6.0534c-.0362.1354-.0974.2595-.1824.3697.337.9718.5077,1.9874.5077,3.0203,0,5.0844-4.1364,9.221-9.2208,9.221ZM3.5029,3.2931c-.1999,0-.3922.0785-.539.2255-.1962.1962-.2704.4733-.1986.7412l1.622,6.0534c.0319.1188.0904.2255.1736.3168l.0592.0651-.0296.0828c-.344.9641-.5184,1.9738-.5184,3.0012,0,4.923,4.0052,8.9281,8.9281,8.9281s8.928-4.0052,8.928-8.9281c0-1.0273-.1744-2.037-.5184-3.0012l-.0296-.0828.0592-.0651c.0834-.0915.1418-.1982.1736-.3168l1.622-6.0534c.0718-.2679-.0024-.545-.1986-.7412-.1962-.1963-.473-.2705-.7412-.1986l-6.0534,1.622c-.163.0438-.3031.1363-.4052.2678l-.0625.0804-.0971-.0305c-1.7284-.5426-3.626-.5426-5.3535,0l-.0971.0305-.0625-.0804c-.1022-.1315-.2424-.2241-.4054-.2678l-6.0534-1.622c-.0673-.018-.1351-.0269-.2022-.0269Z" fill="#f3c72f" stroke-width="0"/>
  </g>
</svg>