<?xml version="1.0" encoding="UTF-8"?>
<svg id="Layer_1" data-name="Layer 1" xmlns="http://www.w3.org/2000/svg" version="1.1" viewBox="0 0 40 40">
  <path d="M36.1699,8.2455c-.8882-1.2223-1.9137-2.3385-3.0506-3.3277C29.6051,1.8569,25.0161,0,20,0S10.3949,1.8569,6.8781,4.9178c-1.1369.9893-2.1597,2.1054-3.0506,3.3277C1.4217,11.5473,0,15.6131,0,20.0026c0,11.0268,8.9706,19.9974,20,19.9974s20-8.9706,20-19.9974c0-4.3895-1.4217-8.4553-3.8301-11.7571ZM20,4.4025c3.9181,0,7.4997,1.4502,10.2421,3.8431-2.7425,2.3929-6.324,3.8431-10.2421,3.8431s-7.4997-1.4502-10.2421-3.8431c2.7425-2.3929,6.3239-3.8431,10.2421-3.8431ZM20,35.5976c-8.6003,0-15.5975-6.9947-15.5975-15.595,0-3.1024.9115-5.9977,2.4757-8.4293,3.5168,3.0609,8.1057,4.9177,13.1219,4.9177s9.6051-1.8568,13.1193-4.9177c1.5667,2.4317,2.4783,5.3269,2.4783,8.4293,0,8.6003-6.9973,15.595-15.5976,15.595Z" fill="#424242" stroke-width="0"/>
</svg>