<?xml version="1.0" encoding="UTF-8"?>
<svg id="Layer_1" data-name="Layer 1" xmlns="http://www.w3.org/2000/svg" version="1.1" viewBox="0 0 1920 40">
  <g>
    <ellipse cx="11.3368" cy="20" rx="5.6432" ry=".5" fill="#53685f" stroke-width="0"/>
    <ellipse cx="26.3518" cy="20" rx="5.6432" ry=".5" fill="#53685f" stroke-width="0"/>
    <rect x="11.3368" y="19.5" width="15.015" height="1" fill="#53685f" stroke-width="0"/>
  </g>
  <g>
    <ellipse cx="49.0254" cy="20" rx="5.6432" ry=".5" fill="#53685f" stroke-width="0"/>
    <ellipse cx="63.9395" cy="20" rx="5.6432" ry=".5" fill="#53685f" stroke-width="0"/>
    <rect x="49.0254" y="19.5" width="15.015" height="1" fill="#53685f" stroke-width="0"/>
  </g>
  <g>
    <ellipse cx="86.6131" cy="20" rx="5.6432" ry=".5" fill="#53685f" stroke-width="0"/>
    <ellipse cx="101.6281" cy="20" rx="5.6432" ry=".5" fill="#53685f" stroke-width="0"/>
    <rect x="86.6131" y="19.5" width="15.015" height="1" fill="#53685f" stroke-width="0"/>
  </g>
  <g>
    <ellipse cx="124.3017" cy="20" rx="5.6432" ry=".5" fill="#53685f" stroke-width="0"/>
    <ellipse cx="139.3166" cy="20" rx="5.6432" ry=".5" fill="#53685f" stroke-width="0"/>
    <rect x="124.3017" y="19.5" width="15.015" height="1" fill="#53685f" stroke-width="0"/>
  </g>
  <g>
    <ellipse cx="161.9902" cy="20" rx="5.6432" ry=".5" fill="#53685f" stroke-width="0"/>
    <ellipse cx="176.9044" cy="20" rx="5.6432" ry=".5" fill="#53685f" stroke-width="0"/>
    <rect x="161.9902" y="19.5" width="15.015" height="1" fill="#53685f" stroke-width="0"/>
  </g>
  <g>
    <ellipse cx="199.578" cy="20" rx="5.6432" ry=".5" fill="#53685f" stroke-width="0"/>
    <ellipse cx="214.4922" cy="20" rx="5.6432" ry=".5" fill="#53685f" stroke-width="0"/>
    <rect x="199.578" y="19.5" width="15.015" height="1" fill="#53685f" stroke-width="0"/>
  </g>
  <g>
    <ellipse cx="237.2666" cy="20" rx="5.6432" ry=".5" fill="#53685f" stroke-width="0"/>
    <ellipse cx="252.1808" cy="20" rx="5.6432" ry=".5" fill="#53685f" stroke-width="0"/>
    <rect x="237.2666" y="19.5" width="15.015" height="1" fill="#53685f" stroke-width="0"/>
  </g>
  <g>
    <ellipse cx="274.8544" cy="20" rx="5.6432" ry=".5" fill="#53685f" stroke-width="0"/>
    <ellipse cx="289.8693" cy="20" rx="5.6432" ry=".5" fill="#53685f" stroke-width="0"/>
    <rect x="274.8544" y="19.5" width="15.015" height="1" fill="#53685f" stroke-width="0"/>
  </g>
  <g>
    <ellipse cx="312.5429" cy="20" rx="5.6432" ry=".5" fill="#53685f" stroke-width="0"/>
    <ellipse cx="327.4571" cy="20" rx="5.6432" ry=".5" fill="#53685f" stroke-width="0"/>
    <rect x="312.5429" y="19.5" width="15.015" height="1" fill="#53685f" stroke-width="0"/>
  </g>
  <g>
    <ellipse cx="350.1307" cy="20" rx="5.6432" ry=".5" fill="#53685f" stroke-width="0"/>
    <ellipse cx="365.1457" cy="20" rx="5.6432" ry=".5" fill="#53685f" stroke-width="0"/>
    <rect x="350.1307" y="19.5" width="15.015" height="1" fill="#53685f" stroke-width="0"/>
  </g>
  <g>
    <g>
      <ellipse cx="387.8193" cy="20" rx="5.6432" ry=".5" fill="#53685f" stroke-width="0"/>
      <ellipse cx="402.8342" cy="20" rx="5.6432" ry=".5" fill="#53685f" stroke-width="0"/>
      <rect x="387.8193" y="19.5" width="15.015" height="1" fill="#53685f" stroke-width="0"/>
    </g>
    <g>
      <ellipse cx="425.407" cy="20" rx="5.6432" ry=".5" fill="#53685f" stroke-width="0"/>
      <ellipse cx="440.422" cy="20" rx="5.6432" ry=".5" fill="#53685f" stroke-width="0"/>
      <rect x="425.407" y="19.5" width="15.015" height="1" fill="#53685f" stroke-width="0"/>
    </g>
    <g>
      <ellipse cx="463.0956" cy="20" rx="5.6432" ry=".5" fill="#53685f" stroke-width="0"/>
      <ellipse cx="478.1105" cy="20" rx="5.6432" ry=".5" fill="#53685f" stroke-width="0"/>
      <rect x="463.0956" y="19.5" width="15.015" height="1" fill="#53685f" stroke-width="0"/>
    </g>
    <g>
      <ellipse cx="500.7841" cy="20" rx="5.6432" ry=".5" fill="#53685f" stroke-width="0"/>
      <ellipse cx="515.6983" cy="20" rx="5.6432" ry=".5" fill="#53685f" stroke-width="0"/>
      <rect x="500.7841" y="19.5" width="15.015" height="1" fill="#53685f" stroke-width="0"/>
    </g>
    <g>
      <ellipse cx="538.3719" cy="20" rx="5.6432" ry=".5" fill="#53685f" stroke-width="0"/>
      <ellipse cx="553.3869" cy="20" rx="5.6432" ry=".5" fill="#53685f" stroke-width="0"/>
      <rect x="538.3719" y="19.5" width="15.015" height="1" fill="#53685f" stroke-width="0"/>
    </g>
    <g>
      <ellipse cx="576.0605" cy="20" rx="5.6432" ry=".5" fill="#53685f" stroke-width="0"/>
      <ellipse cx="590.9746" cy="20" rx="5.6432" ry=".5" fill="#53685f" stroke-width="0"/>
      <rect x="576.0605" y="19.5" width="15.015" height="1" fill="#53685f" stroke-width="0"/>
    </g>
    <g>
      <ellipse cx="613.6482" cy="20" rx="5.6432" ry=".5" fill="#53685f" stroke-width="0"/>
      <ellipse cx="628.6632" cy="20" rx="5.6432" ry=".5" fill="#53685f" stroke-width="0"/>
      <rect x="613.6482" y="19.5" width="15.015" height="1" fill="#53685f" stroke-width="0"/>
    </g>
    <g>
      <ellipse cx="651.3368" cy="20" rx="5.6432" ry=".5" fill="#53685f" stroke-width="0"/>
      <ellipse cx="666.251" cy="20" rx="5.6432" ry=".5" fill="#53685f" stroke-width="0"/>
      <rect x="651.3368" y="19.5" width="15.015" height="1" fill="#53685f" stroke-width="0"/>
    </g>
    <g>
      <ellipse cx="689.0253" cy="20" rx="5.6432" ry=".5" fill="#53685f" stroke-width="0"/>
      <ellipse cx="703.9396" cy="20" rx="5.6432" ry=".5" fill="#53685f" stroke-width="0"/>
      <rect x="689.0253" y="19.5" width="15.015" height="1" fill="#53685f" stroke-width="0"/>
    </g>
    <g>
      <ellipse cx="726.6132" cy="20" rx="5.6432" ry=".5" fill="#53685f" stroke-width="0"/>
      <ellipse cx="741.6281" cy="20" rx="5.6432" ry=".5" fill="#53685f" stroke-width="0"/>
      <rect x="726.6132" y="19.5" width="15.015" height="1" fill="#53685f" stroke-width="0"/>
    </g>
  </g>
  <g>
    <g>
      <ellipse cx="764.3017" cy="20" rx="5.6432" ry=".5" fill="#53685f" stroke-width="0"/>
      <ellipse cx="779.2158" cy="20" rx="5.6432" ry=".5" fill="#53685f" stroke-width="0"/>
      <rect x="764.3017" y="19.5" width="15.015" height="1" fill="#53685f" stroke-width="0"/>
    </g>
    <g>
      <ellipse cx="801.8894" cy="20" rx="5.6432" ry=".5" fill="#53685f" stroke-width="0"/>
      <ellipse cx="816.9044" cy="20" rx="5.6432" ry=".5" fill="#53685f" stroke-width="0"/>
      <rect x="801.8894" y="19.5" width="15.015" height="1" fill="#53685f" stroke-width="0"/>
    </g>
    <g>
      <ellipse cx="839.578" cy="20" rx="5.6432" ry=".5" fill="#53685f" stroke-width="0"/>
      <ellipse cx="854.4922" cy="20" rx="5.6432" ry=".5" fill="#53685f" stroke-width="0"/>
      <rect x="839.578" y="19.5" width="15.015" height="1" fill="#53685f" stroke-width="0"/>
    </g>
    <g>
      <ellipse cx="877.1658" cy="20" rx="5.6432" ry=".5" fill="#53685f" stroke-width="0"/>
      <ellipse cx="892.1808" cy="20" rx="5.6432" ry=".5" fill="#53685f" stroke-width="0"/>
      <rect x="877.1658" y="19.5" width="15.015" height="1" fill="#53685f" stroke-width="0"/>
    </g>
    <g>
      <ellipse cx="914.8544" cy="20" rx="5.6432" ry=".5" fill="#53685f" stroke-width="0"/>
      <ellipse cx="929.8693" cy="20" rx="5.6432" ry=".5" fill="#53685f" stroke-width="0"/>
      <rect x="914.8544" y="19.5" width="15.015" height="1" fill="#53685f" stroke-width="0"/>
    </g>
    <g>
      <ellipse cx="952.4421" cy="20" rx="5.6432" ry=".5" fill="#53685f" stroke-width="0"/>
      <ellipse cx="967.4571" cy="20" rx="5.6432" ry=".5" fill="#53685f" stroke-width="0"/>
      <rect x="952.4421" y="19.5" width="15.015" height="1" fill="#53685f" stroke-width="0"/>
    </g>
    <g>
      <ellipse cx="990.1307" cy="20" rx="5.6432" ry=".5" fill="#53685f" stroke-width="0"/>
      <ellipse cx="1005.1456" cy="20" rx="5.6432" ry=".5" fill="#53685f" stroke-width="0"/>
      <rect x="990.1307" y="19.5" width="15.015" height="1" fill="#53685f" stroke-width="0"/>
    </g>
    <g>
      <ellipse cx="1027.8193" cy="20" rx="5.6432" ry=".5" fill="#53685f" stroke-width="0"/>
      <ellipse cx="1042.7334" cy="20" rx="5.6432" ry=".5" fill="#53685f" stroke-width="0"/>
      <rect x="1027.8193" y="19.5" width="15.015" height="1" fill="#53685f" stroke-width="0"/>
    </g>
    <g>
      <ellipse cx="1065.407" cy="20" rx="5.6432" ry=".5" fill="#53685f" stroke-width="0"/>
      <ellipse cx="1080.422" cy="20" rx="5.6432" ry=".5" fill="#53685f" stroke-width="0"/>
      <rect x="1065.407" y="19.5" width="15.015" height="1" fill="#53685f" stroke-width="0"/>
    </g>
    <g>
      <ellipse cx="1103.0956" cy="20" rx="5.6432" ry=".5" fill="#53685f" stroke-width="0"/>
      <ellipse cx="1118.0098" cy="20" rx="5.6432" ry=".5" fill="#53685f" stroke-width="0"/>
      <rect x="1103.0956" y="19.5" width="15.015" height="1" fill="#53685f" stroke-width="0"/>
    </g>
  </g>
  <g>
    <g>
      <ellipse cx="1140.7842" cy="20" rx="5.6432" ry=".5" fill="#53685f" stroke-width="0"/>
      <ellipse cx="1155.6983" cy="20" rx="5.6432" ry=".5" fill="#53685f" stroke-width="0"/>
      <rect x="1140.7842" y="19.5" width="15.015" height="1" fill="#53685f" stroke-width="0"/>
    </g>
    <g>
      <ellipse cx="1178.3719" cy="20" rx="5.6432" ry=".5" fill="#53685f" stroke-width="0"/>
      <ellipse cx="1193.2861" cy="20" rx="5.6432" ry=".5" fill="#53685f" stroke-width="0"/>
      <rect x="1178.3719" y="19.5" width="15.015" height="1" fill="#53685f" stroke-width="0"/>
    </g>
    <g>
      <ellipse cx="1215.9597" cy="20" rx="5.6432" ry=".5" fill="#53685f" stroke-width="0"/>
      <ellipse cx="1230.9747" cy="20" rx="5.6432" ry=".5" fill="#53685f" stroke-width="0"/>
      <rect x="1215.9597" y="19.5" width="15.015" height="1" fill="#53685f" stroke-width="0"/>
    </g>
    <g>
      <ellipse cx="1253.6483" cy="20" rx="5.6432" ry=".5" fill="#53685f" stroke-width="0"/>
      <ellipse cx="1268.6633" cy="20" rx="5.6432" ry=".5" fill="#53685f" stroke-width="0"/>
      <rect x="1253.6483" y="19.5" width="15.015" height="1" fill="#53685f" stroke-width="0"/>
    </g>
    <g>
      <ellipse cx="1291.3368" cy="20" rx="5.6432" ry=".5" fill="#53685f" stroke-width="0"/>
      <ellipse cx="1306.251" cy="20" rx="5.6432" ry=".5" fill="#53685f" stroke-width="0"/>
      <rect x="1291.3368" y="19.5" width="15.015" height="1" fill="#53685f" stroke-width="0"/>
    </g>
    <g>
      <ellipse cx="1328.9246" cy="20" rx="5.6432" ry=".5" fill="#53685f" stroke-width="0"/>
      <ellipse cx="1343.9395" cy="20" rx="5.6432" ry=".5" fill="#53685f" stroke-width="0"/>
      <rect x="1328.9246" y="19.5" width="15.015" height="1" fill="#53685f" stroke-width="0"/>
    </g>
    <g>
      <ellipse cx="1366.6131" cy="20" rx="5.6432" ry=".5" fill="#53685f" stroke-width="0"/>
      <ellipse cx="1381.5274" cy="20" rx="5.6432" ry=".5" fill="#53685f" stroke-width="0"/>
      <rect x="1366.6131" y="19.5" width="15.015" height="1" fill="#53685f" stroke-width="0"/>
    </g>
    <g>
      <ellipse cx="1404.201" cy="20" rx="5.6432" ry=".5" fill="#53685f" stroke-width="0"/>
      <ellipse cx="1419.2158" cy="20" rx="5.6432" ry=".5" fill="#53685f" stroke-width="0"/>
      <rect x="1404.201" y="19.5" width="15.015" height="1" fill="#53685f" stroke-width="0"/>
    </g>
    <g>
      <ellipse cx="1441.8894" cy="20" rx="5.6432" ry=".5" fill="#53685f" stroke-width="0"/>
      <ellipse cx="1456.9044" cy="20" rx="5.6432" ry=".5" fill="#53685f" stroke-width="0"/>
      <rect x="1441.8894" y="19.5" width="15.015" height="1" fill="#53685f" stroke-width="0"/>
    </g>
    <g>
      <ellipse cx="1479.578" cy="20" rx="5.6432" ry=".5" fill="#53685f" stroke-width="0"/>
      <ellipse cx="1494.4922" cy="20" rx="5.6432" ry=".5" fill="#53685f" stroke-width="0"/>
      <rect x="1479.578" y="19.5" width="15.015" height="1" fill="#53685f" stroke-width="0"/>
    </g>
  </g>
  <g>
    <g>
      <ellipse cx="1517.1658" cy="20" rx="5.6432" ry=".5" fill="#53685f" stroke-width="0"/>
      <ellipse cx="1532.1808" cy="20" rx="5.6432" ry=".5" fill="#53685f" stroke-width="0"/>
      <rect x="1517.1658" y="19.5" width="15.015" height="1" fill="#53685f" stroke-width="0"/>
    </g>
    <g>
      <ellipse cx="1554.8544" cy="20" rx="5.6432" ry=".5" fill="#53685f" stroke-width="0"/>
      <ellipse cx="1569.7685" cy="20" rx="5.6432" ry=".5" fill="#53685f" stroke-width="0"/>
      <rect x="1554.8544" y="19.5" width="15.015" height="1" fill="#53685f" stroke-width="0"/>
    </g>
    <g>
      <ellipse cx="1592.4421" cy="20" rx="5.6432" ry=".5" fill="#53685f" stroke-width="0"/>
      <ellipse cx="1607.4571" cy="20" rx="5.6432" ry=".5" fill="#53685f" stroke-width="0"/>
      <rect x="1592.4421" y="19.5" width="15.015" height="1" fill="#53685f" stroke-width="0"/>
    </g>
    <g>
      <ellipse cx="1630.1307" cy="20" rx="5.6432" ry=".5" fill="#53685f" stroke-width="0"/>
      <ellipse cx="1645.0449" cy="20" rx="5.6432" ry=".5" fill="#53685f" stroke-width="0"/>
      <rect x="1630.1307" y="19.5" width="15.015" height="1" fill="#53685f" stroke-width="0"/>
    </g>
    <g>
      <ellipse cx="1667.8193" cy="20" rx="5.6432" ry=".5" fill="#53685f" stroke-width="0"/>
      <ellipse cx="1682.7334" cy="20" rx="5.6432" ry=".5" fill="#53685f" stroke-width="0"/>
      <rect x="1667.8193" y="19.5" width="15.015" height="1" fill="#53685f" stroke-width="0"/>
    </g>
    <g>
      <ellipse cx="1705.407" cy="20" rx="5.6432" ry=".5" fill="#53685f" stroke-width="0"/>
      <ellipse cx="1720.3212" cy="20" rx="5.6432" ry=".5" fill="#53685f" stroke-width="0"/>
      <rect x="1705.407" y="19.5" width="15.015" height="1" fill="#53685f" stroke-width="0"/>
    </g>
    <g>
      <ellipse cx="1742.9948" cy="20" rx="5.6432" ry=".5" fill="#53685f" stroke-width="0"/>
      <ellipse cx="1758.0098" cy="20" rx="5.6432" ry=".5" fill="#53685f" stroke-width="0"/>
      <rect x="1742.9948" y="19.5" width="15.015" height="1" fill="#53685f" stroke-width="0"/>
    </g>
    <g>
      <ellipse cx="1780.6834" cy="20" rx="5.6432" ry=".5" fill="#53685f" stroke-width="0"/>
      <ellipse cx="1795.6984" cy="20" rx="5.6432" ry=".5" fill="#53685f" stroke-width="0"/>
      <rect x="1780.6834" y="19.5" width="15.015" height="1" fill="#53685f" stroke-width="0"/>
    </g>
    <g>
      <ellipse cx="1818.372" cy="20" rx="5.6432" ry=".5" fill="#53685f" stroke-width="0"/>
      <ellipse cx="1833.2861" cy="20" rx="5.6432" ry=".5" fill="#53685f" stroke-width="0"/>
      <rect x="1818.372" y="19.5" width="15.015" height="1" fill="#53685f" stroke-width="0"/>
    </g>
    <g>
      <ellipse cx="1855.9597" cy="20" rx="5.6432" ry=".5" fill="#53685f" stroke-width="0"/>
      <ellipse cx="1870.9746" cy="20" rx="5.6432" ry=".5" fill="#53685f" stroke-width="0"/>
      <rect x="1855.9597" y="19.5" width="15.015" height="1" fill="#53685f" stroke-width="0"/>
    </g>
  </g>
  <g>
    <ellipse cx="1893.6482" cy="20" rx="5.6432" ry=".5" fill="#53685f" stroke-width="0"/>
    <ellipse cx="1908.6632" cy="20" rx="5.6432" ry=".5" fill="#53685f" stroke-width="0"/>
    <rect x="1893.6482" y="19.5" width="15.015" height="1" fill="#53685f" stroke-width="0"/>
  </g>
</svg>