<?xml version="1.0" encoding="UTF-8"?>
<svg id="Layer_1" data-name="Layer 1" xmlns="http://www.w3.org/2000/svg" version="1.1" viewBox="0 0 26 26">
  <rect width="26" height="26" rx="5" ry="5" fill="#e9e9e9" stroke-width="0"/>
  <g>
    <path d="M14.3863,23c-.833,0-1.4667-.2534-1.7907-.7317l-.0637-.0947c-.3416-.5091-.4829-.7198-1.4207-.7198-.2075,0-.3775.0085-.5156.0153-.3085.0154-.4784.0238-.5822-.0913-.1048-.1161-.0897-.2994-.0306-.6902.0539-.3563.0337-.5555-.0673-.666-.1564-.1714-.5741-.1835-1.15-.1488-.555.0303-1.0672-.3211-1.4937-1.0242-2.0292-.8839-3.288-2.5403-3.288-4.3301,0-1.7069,1.1168-3.2708,2.9899-4.1917.2832-1.1598.7844-2.4976,1.5622-2.4131.4899.0528.7468.0188.8869-.1174.1678-.164.2117-.5238.1515-1.242-.0579-.6905-.0662-.944.0683-1.0777.1061-.1057.2567-.0924.485-.0718.1186.0106.2661.0238.4436.0238.791,0,.9145-.3325,1.2128-1.1359l.0556-.1489c.3603-.9605,1.2121-1.3488,2.2779-1.039.5597.1626.5782.5997.5915.9189.0081.1878.0149.35.1086.4319.0757.0659.22.09.4292.07.0825-.0079.334-.0313.4373.1327.1271.202-.0645.5211-.2864.8905-.1755.2922-.3936.6556-.3216.8009.0229.0464.0878.0759.1931.0875.2438.0273.398.1049.4714.2376.1137.2055-.0098.4619-.1186.6881-.045.093-.1284.2664-.1097.3072h0s.021.0172.104.0172c.15,0,.2084.065.2308.1196.0779.1888-.1808.4581-.6832.9572-.2308.2294-.5709.5672-.624.7018.0019.0002.004.0003.0064.0004.1269.0053.1719.0647.1871.1136.0494.1572-.1466.3162-.7207.753l-.0102.0077c.3777.1882.7316.408,1.0545.6553.9465-.8851,2.1892-1.8244,2.8859-1.4414.4717.2597.5644.8803.6624,1.5374.125.8375.2544,1.7036,1.1211,2.0391,1.688.6533,1.4614,1.6601,1.1481,3.0535l-.0195.0868c-.0749.3331-.1627.6242-.2404.881-.2652.8784-.3861,1.2794.4209,1.6799h0c.4014.199,1.0613.5897.9722.9708-.0581.2488-.4014.3752-1.0201.3759h-.0008c-1.0575.0001-3.364-2.1054-4.7108-3.4305-.3531.5406-.8253,1.0212-1.4075,1.4317.0552.0232.1099.0464.1638.0691.7464.3143.8771.3813.851.5189-.0157.0824-.0919.1063-.1517.1136.1434.1017.4209.2544.621.3645.6499.3575.8565.4864.8158.6451-.0322.1257-.198.1257-.2603.1257-.0586,0-.0963.0039-.1199.0081.0238.0347.0653.0825.0959.1175.118.1356.2516.2892.1854.4476-.0558.1329-.2308.2016-.5676.2224-.2126.0132-.2463.0582-.2465.0588-.0119.072.2446.3087.3681.4224.2518.2322.4506.4157.3785.5869-.0632.1509-.2949.1593-.5126.1483-.6138-.033-.6257.0939-.6401.2848-.0208.2725-.0885.525-.6813.6204-.2758.0443-.5374.0662-.7818.0662ZM11.1112,21.2366c1.0536,0,1.2482.2898,1.601.8161l.0632.0939c.3641.5375,1.2452.7519,2.3583.5728.4725-.0761.4842-.2288.499-.4223.0227-.2995.0999-.5247.8682-.4854.192.0101.2667-.008.2941-.0187-.0308-.0742-.2092-.2386-.3189-.3397-.2658-.2453-.4956-.4571-.425-.6558.0571-.1604.2769-.1921.4373-.202.3422-.0211.3804-.0888.3806-.0895.0117-.0365-.105-.1705-.1489-.221-.1063-.1221-.2067-.2375-.1519-.3578.0465-.1017.1729-.1238.2998-.1271-.1445-.1022-.4205-.2541-.62-.3638-.6469-.3558-.8527-.4841-.8141-.6419.0121-.0492.0437-.0791.0813-.0974-.1511-.0725-.3741-.1664-.5671-.2478-.1139-.0478-.2317-.0975-.3475-.1476l-.1846-.0797.1678-.1108c.6741-.4447,1.2055-.9802,1.5798-1.5918l.0717-.1169.0974.0964c2.2233,2.2004,3.9196,3.4624,4.6542,3.4625h.0006c.5612-.0005.7865-.1125.8088-.208.0306-.1302-.2247-.4132-.857-.7268h-.0002c-.9717-.482-.7969-1.061-.5323-1.9372.0766-.2533.1632-.5404.2361-.8658l.0197-.0869c.3216-1.4299.4988-2.2176-1.0146-2.8033-.9845-.3811-1.1296-1.3525-1.2575-2.2095-.0938-.6286-.1748-1.1714-.5523-1.3792-.4591-.2525-1.4434.2835-2.6996,1.4729l-.0683.0646-.0736-.0583c-.3745-.2959-.7937-.5529-1.2465-.764l-.1625-.0757.2936-.2243c.2098-.1597.4827-.3672.5947-.4841-.0917-.0193-.1311-.0709-.1481-.1146-.0694-.1792.1434-.4153.683-.9514.2319-.2304.5739-.5701.6261-.7046-.0057-.0004-.0125-.0007-.0206-.0007-.0528,0-.2132,0-.2881-.1191-.0855-.1361-.0004-.3125.098-.5168.0819-.1699.1837-.3814.1243-.4885-.0452-.0818-.191-.1141-.3055-.1269-.1835-.0205-.3059-.0902-.3637-.2072-.1245-.2517.0963-.6196.3301-1.0091.1373-.2286.3448-.574.2888-.6629-.0149-.0237-.0853-.0466-.233-.032-.2773.0259-.4666-.0128-.5924-.1227-.1642-.1432-.1736-.3685-.1829-.5864-.0136-.3221-.0252-.6003-.4352-.7195-.9594-.2788-1.6933.0518-2.0139.9068l-.0552.1482c-.2958.7966-.4744,1.2775-1.4164,1.2775-.1871,0-.3401-.0137-.463-.0246-.1551-.0139-.2779-.0247-.3125.0094-.0747.0743-.0393.4968-.0051.9054.0577.6873.0418,1.1639-.2162,1.4157-.2241.2189-.5866.2296-1.0619.178-.4833-.0501-.9821.807-1.3396,2.2977l-.0121.0501-.0463.0224c-1.8243.8807-2.9135,2.3831-2.9135,4.0187,0,1.7109,1.2219,3.2989,3.1887,4.1444l.0325.014.018.0303c.269.4526.7163.9853,1.3121.9487.6749-.0407,1.1075-.0175,1.3235.2192.1521.1663.1873.4112.1216.845-.0278.1833-.0696.4603-.0229.512.0348.0386.209.0301.4101.0202.1411-.007.3146-.0156.5264-.0156ZM14.5129,9.461h0Z" fill="#2c3882" stroke-width="0"/>
    <circle cx="6.8675" cy="14.5185" r=".4718" fill="#2c3882" stroke-width="0"/>
    <path d="M5.5439,17.4497c-.017,0-.0341-.0006-.0511-.0019-.1813-.0134-.3465-.0965-.4651-.2341-.0393-.0454-.0342-.114.0112-.1532.0455-.0393.114-.0343.1532.0112.0808.0937.1933.1503.3167.1594.1216.0086.2428-.0304.3365-.1112.0937-.0808.1503-.1933.1594-.3167.009-.1233-.0304-.2428-.1112-.3365-.0393-.0454-.0342-.114.0112-.1532.0453-.0393.1139-.0344.1532.0112.1187.1376.1767.3133.1634.4945-.0134.1813-.0965.3465-.2341.4651-.1246.1076-.2805.1653-.4433.1653Z" fill="#2c3882" stroke-width="0"/>
  </g>
</svg>