<?xml version="1.0" encoding="UTF-8"?>
<svg id="Layer_1" data-name="Layer 1" xmlns="http://www.w3.org/2000/svg" version="1.1" viewBox="0 0 26 26">
  <rect width="26" height="26" rx="5" ry="5" fill="#e9e9e9" stroke-width="0"/>
  <g>
    <circle cx="10.0078" cy="12.6278" r=".6897" fill="#ef1741" stroke-width="0"/>
    <circle cx="15.9922" cy="12.6278" r=".6897" fill="#ef1741" stroke-width="0"/>
    <path d="M12.9999,21.012c-1.1586,0-1.891-3.427-1.891-4.2845,0-1.0426.8483-1.891,1.891-1.891s1.891.8483,1.891,1.891c0,.8575-.7324,4.2845-1.891,4.2845ZM12.9999,15.154c-.8676,0-1.5734.7058-1.5734,1.5734,0,1.0211.8001,3.9669,1.5734,3.9669s1.5734-2.9459,1.5734-3.9669c0-.8676-.7058-1.5734-1.5734-1.5734Z" fill="#ef1741" stroke-width="0"/>
    <path d="M12.9999,23.3176c-5.514,0-9.9999-4.4861-9.9999-10.0001,0-2.3597.8322-4.6348,2.3489-6.4358-1.6334-.3663-4.3577-.2358-4.3864-.2343-.0676.0067-.1318-.0378-.1563-.1022-.0245-.0642-.0048-.1371.0488-.1802,2.0197-1.6252,4.3164-1.38,5.9165-.8693,1.7629-1.4052,3.9711-2.1782,6.2284-2.1782s4.4656.773,6.2285,2.1782c1.6002-.5108,3.8967-.7564,5.9165.8693.0537.0431.0733.116.0488.1802-.0245.0644-.0868.1084-.1563.1022-.0287-.0014-2.7527-.1318-4.3864.2343,1.5167,1.801,2.3489,4.0761,2.3489,6.4358,0,5.514-4.4861,10.0001-10.0001,10.0001ZM2.1551,6.3044c1.0422,0,2.5298.056,3.5252.3328.0529.0147.0943.0555.1098.1081s.0028.1093-.0335.1504c-1.5728,1.7724-2.439,4.053-2.439,6.4219,0,5.3389,4.3434,9.6825,9.6824,9.6825s9.6825-4.3436,9.6825-9.6825c0-2.3689-.8662-4.6495-2.439-6.4219-.0363-.0411-.049-.0978-.0335-.1504s.0569-.0933.1098-.1081c1.2476-.3469,3.2699-.3472,4.2172-.3247-1.841-1.2255-3.8699-.9572-5.2913-.4883-.0516.0166-.1079.0064-.1498-.0276-1.7175-1.3938-3.8824-2.1614-6.0959-2.1614s-4.3783.7676-6.0958,2.1614c-.0422.034-.0986.0442-.1498.0276-1.4214-.4689-3.4503-.7369-5.2913.4883.1917-.0045.4275-.0081.692-.0081Z" fill="#ef1741" stroke-width="0"/>
  </g>
</svg>