<?xml version="1.0" encoding="UTF-8"?>
<svg id="Layer_1" data-name="Layer 1" xmlns="http://www.w3.org/2000/svg" version="1.1" viewBox="0 0 240.1689 96.1023">
  <g>
    <path d="M45.642,34.7803c-8.6207.0441-11.7595-7.2503-11.7595-16.5342,0-9.2398,3.1388-16.4899,11.7595-16.5342,8.7976.0443,11.7597,7.9135,11.7597,16.5783,0,9.4608-3.4926,16.5342-11.7597,16.4901ZM45.5979,8.7853c-2.8294,0-4.2882,2.5199-4.2882,9.5492,0,6.5871,1.1935,9.3723,4.2882,9.3723,3.1388,0,4.3766-2.7852,4.3766-9.3723,0-6.8524-1.2819-9.5492-4.3766-9.5492ZM67.4814,34.9128c-.2653,1.7683-2.122,3.2273-4.023,3.0504-2.1663-.221-3.4483-1.9451-3.36-3.7136.5748-6.7197.6632-23.6074,0-30.4157-.2651-1.8567,1.459-3.6252,3.2273-3.8018,2.0338-.2212,3.8905,1.1494,4.1558,3.0061.8399,6.0566.4861,26.9675,0,31.8747Z" fill="#444" stroke-width="0"/>
    <path d="M97.0545,13.3831c.4863,1.901-.7958,3.1829-2.122,3.8462-2.2548,1.1052-6.6314,1.6357-9.6377,1.6357-3.1388,0-6.5871-.7515-8.2669-1.4588-1.1937-.5748-2.8737-1.7243-3.36-3.7136-.7073-3.1831-.5305-7.0734,0-10.0797.3538-1.9895,2.0779-3.0504,3.3157-3.0504h16.4458c1.5473,0,2.8294,1.3704,2.8294,3.1829,0,1.5031-.9284,3.3157-2.8294,3.3157h-11.9807c-.5746,0-.7956.221-.8399.7073-.0441.6632-.0441,2.0779,0,2.7409.0443.7517.3538,1.1937,1.0611,1.3706,1.0168.221,2.343.3536,3.8903.3536,2.6525,0,5.5262-.6189,6.8965-.9284,1.8569-.442,3.9789-.3095,4.5978,2.0779ZM83.1728,33.1444c.1328.3979.3096.5307.7958.6632,1.8569.3979,5.5262.6189,8.7534.6189,3.6252,0,8.0018-.5305,11.0522-1.2378,1.9895-.4422,3.36.221,3.7579,1.7241.3977,1.4147-.4863,2.7409-1.9895,3.2714-3.5367,1.2821-9.9028,1.5031-14.0143,1.5473-4.023,0-9.2839-.221-11.9364-1.2819-1.2821-.5305-3.0063-1.9895-3.4041-3.9346-.442-2.0779-.1326-3.9346.0443-4.863.3095-1.7685,1.5916-2.6084,2.5199-2.6084h20.9108v-.9284c-.0443-.3538-.3095-.4863-.9285-.4863h-19.8938c-.8842,0-2.2105-.8399-2.2105-2.6968,0-1.5031,1.1052-2.6084,2.122-2.6084h24.6242c1.238,0,3.0506,1.2821,3.4041,3.9346.2653,2.0779.1326,3.9346-.1769,5.4377-.442,2.0779-1.9008,2.6525-3.2273,2.6525h-20.2035v.7958ZM106.692,6.3097h2.343c1.5916,0,2.8737,1.5031,2.8737,3.2273,0,1.5031-.8842,3.3155-2.6525,3.3155h-2.5642c-.0884,1.017-.1769,2.1222-.2651,3.3157-.1769,1.8569-1.8569,3.4041-4.023,3.1388-2.2105-.2651-3.5367-1.9451-3.3598-3.7134.442-3.9346.3095-8.7976,0-11.8923-.1769-1.7241,1.0609-3.4041,3.2271-3.6693,2.1663-.2653,3.8905,1.1494,4.1558,3.0504.1326,1.1937.221,2.2546.2651,3.2273Z" fill="#444" stroke-width="0"/>
    <path d="M112.2153,31.774c.2653-2.5199,2.3874-3.2716,3.9789-3.0504,6.8524.663,13.7931.7956,20.5571,0,1.7685-.2212,3.8462.9725,4.023,3.1829.1769,2.343-1.5916,3.5808-3.1388,3.8462-5.2608.6632-16.1804.8399-22.2814,0-1.6798-.2653-3.404-1.3262-3.1388-3.9787ZM126.3622,25.4079c-7.2944,0-12.7322-4.6863-12.7322-12.2458,0-7.5156,5.6146-12.3343,12.7322-12.3343,7.4713,0,12.8206,4.9955,12.8206,12.3784,0,7.9133-5.9239,12.2017-12.8206,12.2017ZM126.3622,7.8569c-3.404,0-5.4375,2.2105-5.4375,5.3052,0,2.7851,1.8567,5.2165,5.4819,5.2165,3.3157,0,5.4819-2.122,5.4819-5.2609s-1.901-5.2609-5.5262-5.2609ZM149.2183,34.9128c-.2653,1.7683-2.122,3.2273-4.023,3.0504-2.1663-.221-3.4483-1.9451-3.36-3.7136.5748-6.7197.6632-23.6074,0-30.4157-.2651-1.8567,1.459-3.6252,3.2273-3.8018,2.0338-.2212,3.8905,1.1494,4.1558,3.0061.8399,6.0566.4861,26.9675,0,31.8747Z" fill="#444" stroke-width="0"/>
    <path d="M166.5879,31.774c.3095-2.122,2.3874-3.2716,3.9789-3.0504,2.6525.2651,6.7197.442,11.0522.5305v-4.3325c0-1.5031,1.8126-2.7852,3.6252-2.7852,1.7241,0,3.802,1.1052,3.802,2.7852v4.3325c4.3325-.0443,8.3554-.221,11.008-.5305,1.7683-.2212,3.9344.9284,4.0229,3.1829.0884,2.2989-1.5914,3.5808-3.1388,3.8462-5.2608.6632-25.1106.8399-31.2115,0-1.6798-.2653-3.4483-1.8126-3.1388-3.9787ZM169.6826,22.7553c-.5748-1.9008.3095-3.7134,2.2105-4.3766,5.7472-2.0777,9.2839-4.9071,9.2839-12.29v-1.8126c0-1.238,1.4147-2.6527,3.5367-2.6527,2.0777,0,3.8903.8842,3.8903,2.6527v2.564c0,10.0354-7.1176,16.0036-14.3679,18.2583-1.5916.3979-3.8462-.0443-4.5535-2.3432ZM199.7889,18.5996c1.2378.7958,2.1662,2.8737.7073,4.9514-1.3706,1.9453-3.4041,1.8569-5.0398.8401l-6.4987-3.9789c-1.2821-.7958-1.7241-3.1829-.5307-4.863,1.1937-1.6798,3.581-1.8567,4.8188-1.0609l6.543,4.1113Z" fill="#444" stroke-width="0"/>
    <path d="M214.5521,26.2922c.0441.5305.3095.8399.8842.9725,1.1937.221,2.3432.3979,4.023.3979,2.6525,0,4.8186-.5748,5.7913-1.0168,1.2821-.5305,4.2001-.1769,4.8633,2.4315.442,1.7685-.8401,3.4041-2.1222,3.9787-2.2548,1.0168-5.7474,1.5916-8.7093,1.5916-3.1388,0-6.6314-.6189-8.3555-1.4147-1.1052-.5748-2.9178-1.7241-3.3157-3.7577-.7073-3.7577-.442-20.3361.0443-24.3591.1769-1.5473,1.9895-3.1388,4.1997-2.8294,2.6968.3979,3.1388,2.6525,3.0506,3.5808-.2653,2.6527-.7517,15.2964-.3538,20.4247ZM222.5982,10.8632c0-1.7241,1.3264-3.4483,2.8737-3.4483h7.0291c-.0439-1.3706-.1326-2.5642-.2208-3.581-.2655-1.8567,1.4586-3.6252,3.2271-3.8018,2.0336-.2212,3.8903,1.1494,4.1558,3.0061.8397,6.0566.4863,26.9675,0,31.8747-.2655,1.7683-2.1222,3.2273-4.0232,3.0504-2.1662-.221-3.4483-1.9451-3.3596-3.7136.2208-2.3872.3538-6.1008.3977-10.2123h-7.206c-1.8128,0-2.8737-2.0336-2.8737-3.5367,0-1.7241,1.3264-3.4483,2.8737-3.4483h7.2503v-2.6525h-7.2503c-1.8128,0-2.8737-2.0336-2.8737-3.5367Z" fill="#444" stroke-width="0"/>
    <path d="M39.1434,55.3343c1.8126.221,3.581,1.4588,3.3157,3.4926-.6189,6.0564-.5748,20.1592,0,26.8347.1769,1.901-1.5031,3.2273-3.4041,3.3598-2.122.1328-3.8903-.8399-4.0672-2.6525-.4863-4.9071-.8842-20.9108.0441-28.6032.2212-1.6357,2.2989-2.6525,4.1115-2.4315ZM46.2168,71.4706c-1.68,0-2.7409-1.5916-2.7409-3.7136,0-2.0779,1.3706-3.6693,2.6525-3.6693h2.5642c5.8354,0,8.4438,3.7134,8.4438,9.77,0,2.8737-.1326,9.7702-.1326,12.1576,0,.884-.6632,3.0061-3.802,3.0061-2.6525,0-3.8018-1.6798-3.8018-3.0061.0884-2.8294.1326-8.223.1326-10.4334,0-2.6966-.442-4.1113-3.3157-4.1113Z" fill="#444" stroke-width="0"/>
    <path d="M69.2919,86.0595c-.0884,1.68-2.2105,3.0504-4.1113,2.9619-1.9453-.0884-3.5367-1.4588-3.5367-3.2714.1767-6.5871.1326-11.8479.0441-18.0815,0-1.7683,1.5473-2.9619,3.4041-3.1388,2.0336-.1769,4.1997.8399,4.1997,2.9619.1769,5.7915.2653,11.5385,0,18.5678ZM69.3362,59.2689c-.1328,2.0777-2.122,3.1388-4.2441,2.9619-1.9451-.1769-3.3157-1.2378-3.3598-2.6525l-.0443-1.7241c-.0884-1.901,2.122-2.9178,3.6252-2.9178,1.8567,0,3.9346.7958,4.023,2.4315v1.901Z" fill="#444" stroke-width="0"/>
    <path d="M92.1893,55.3343c1.8126.221,3.581,1.4588,3.3157,3.4926-.6189,6.0564-.5748,20.1592,0,26.8347.1769,1.901-1.5031,3.2273-3.4041,3.3598-2.122.1328-3.8903-.8399-4.0672-2.6525-.4863-4.9071-.8842-20.9108.0441-28.6032.2212-1.6357,2.2989-2.6525,4.1115-2.4315ZM99.2627,71.4706c-1.68,0-2.7409-1.5916-2.7409-3.7136,0-2.0779,1.3706-3.6693,2.6525-3.6693h2.5642c5.8354,0,8.4438,3.7134,8.4438,9.77,0,2.8737-.1326,9.7702-.1326,12.1576,0,.884-.6632,3.0061-3.802,3.0061-2.6525,0-3.8018-1.6798-3.8018-3.0061.0884-2.8294.1326-8.223.1326-10.4334,0-2.6966-.442-4.1113-3.3157-4.1113Z" fill="#444" stroke-width="0"/>
    <path d="M122.3378,86.0595c-.0884,1.68-2.2105,3.0504-4.1113,2.9619-1.9453-.0884-3.5367-1.4588-3.5367-3.2714.1767-6.5871.1326-11.8479.0441-18.0815,0-1.7683,1.5473-2.9619,3.4041-3.1388,2.0336-.1769,4.1997.8399,4.1997,2.9619.1769,5.7915.2653,11.5385,0,18.5678ZM122.3821,59.2689c-.1328,2.0777-2.122,3.1388-4.2441,2.9619-1.9451-.1769-3.3157-1.2378-3.3598-2.6525l-.0443-1.7241c-.0884-1.901,2.122-2.9178,3.6252-2.9178,1.8567,0,3.9346.7958,4.023,2.4315v1.901Z" fill="#444" stroke-width="0"/>
    <path d="M130.5594,94.415c-1.105-.5748-2.2103-2.3874-1.2819-4.1556,1.1937-2.122,3.0504-2.3432,4.6419-1.459,1.0609.5748,2.0336.9284,3.8018.9284,2.5199,0,3.8462-2.0777,3.9789-4.9955.1767-3.581,0-8.886-.221-12.9975,0-.3536-.0884-1.3262-1.1937-1.3262h-2.343c-2.9621,0-4.7304,2.122-4.7304,4.9073,0,2.9619,1.5031,5.0398,3.5367,5.0398h.884c1.5031,0,2.5642,1.4147,2.5642,3.0945s-.9284,3.2716-2.5199,3.2716h-1.2821c-7.0291,0-10.6986-4.8188-10.6986-11.3618,0-5.4819,3.1831-11.2732,12.1133-11.2732h6.8083c2.343,0,3.8903,1.4147,4.2441,3.3598.3095,2.0777.5305,10.9637.3536,16.8437-.2653,8.1785-5.3934,11.5826-11.6711,11.8036-2.6968.0884-5.3052-.6189-6.9852-1.6798Z" fill="#444" stroke-width="0"/>
    <path d="M157.8344,55.3343c1.8126.221,3.581,1.4588,3.3157,3.4926-.6189,6.0564-.5748,20.1592,0,26.8347.1769,1.901-1.5031,3.2273-3.4041,3.3598-2.122.1328-3.8903-.8399-4.0672-2.6525-.4863-4.9071-.8842-20.9108.0441-28.6032.2212-1.6357,2.2989-2.6525,4.1115-2.4315ZM164.9079,71.4706c-1.68,0-2.7409-1.5916-2.7409-3.7136,0-2.0779,1.3706-3.6693,2.6525-3.6693h2.5642c5.8354,0,8.4438,3.7134,8.4438,9.77,0,2.8737-.1326,9.7702-.1326,12.1576,0,.884-.6632,3.0061-3.802,3.0061-2.6525,0-3.8018-1.6798-3.8018-3.0061.0884-2.8294.1326-8.223.1326-10.4334,0-2.6966-.442-4.1113-3.3157-4.1113Z" fill="#444" stroke-width="0"/>
    <path d="M182.2799,90.3035c-2.5199-.1326-3.4483-1.6357-3.4483-2.4758,0-1.2378,0-2.3872-.0443-3.1388-.0884-1.9008,1.901-3.0504,3.6695-3.0504,2.343,0,3.8903.8842,3.9787,2.6084.0884,1.0168.0441,2.122,0,3.2714-.1326,2.0338-2.2105,2.8737-4.1556,2.7852ZM182.324,78.4113c-1.901-.0884-3.4483-1.1052-3.4483-2.8735.0884-6.322.1326-12.7765-.0441-19.7615,0-1.5031,1.6357-2.9619,3.6693-2.9619,2.2546,0,3.8905,1.2378,3.9787,2.9619.3096,7.0734.2212,14.0584,0,19.9384,0,2.122-2.122,2.7851-4.1556,2.6966Z" fill="#444" stroke-width="0"/>
  </g>
  <path d="M10.4376,61.0144c-.8919,0-1.6976-.6137-1.905-1.5201-.4491-1.9623-4.446-3.9908-7.1405-4.8043-1.0334-.3119-1.6196-1.4025-1.3089-2.4363.311-1.0336,1.4-1.621,2.4336-1.3106.8871.2657,8.6988,2.739,9.8293,7.6786.2411,1.0531-.4174,2.102-1.4705,2.343-.1467.0336-.2936.0497-.438.0497Z" fill="#444" stroke-width="0"/>
  <path d="M15.6958,51.1154c-.8919,0-1.6976-.6137-1.905-1.5201-.4491-1.9623-4.446-3.9908-7.1405-4.8043-1.0334-.3119-1.6196-1.4025-1.3089-2.4363.311-1.0338,1.4-1.62,2.4336-1.3106.8871.2657,8.6988,2.739,9.8293,7.6786.2411,1.0531-.4174,2.102-1.4705,2.343-.1467.0336-.2936.0497-.438.0497Z" fill="#444" stroke-width="0"/>
  <path d="M202.5569,65.9639c-.1448,0-.2915-.016-.4386-.0497-1.0529-.2411-1.7111-1.2901-1.4701-2.3432,1.1308-4.9394,8.9427-7.4127,9.8298-7.6784,1.0334-.31,2.1249.2772,2.4351,1.3123.3098,1.0344-.2774,2.1241-1.3112,2.4347-2.6945.8137-6.691,2.8422-7.1403,4.8043-.2074.9062-1.0132,1.5199-1.9048,1.5199Z" fill="#444" stroke-width="0"/>
  <path d="M197.2989,56.0649c-.1448,0-.2915-.016-.4382-.0497-1.0533-.2411-1.7115-1.29-1.4705-2.343,1.1304-4.9396,8.9424-7.4129,9.8294-7.6786,1.0342-.3102,2.1249.2772,2.4351,1.3123.3098,1.0344-.2774,2.1241-1.3112,2.4347-2.6945.8137-6.691,2.842-7.1399,4.8041-.2074.9062-1.0132,1.5201-1.9048,1.5201Z" fill="#444" stroke-width="0"/>
</svg>