<?xml version="1.0" encoding="UTF-8"?>
<svg id="Layer_1" data-name="Layer 1" xmlns="http://www.w3.org/2000/svg" version="1.1" viewBox="0 0 40 40">
  <path d="M20,40c-.686,0-1.3603-.1073-2.0042-.3191-.95-.311-1.8288-.8514-2.5397-1.5623-1.2134-1.2147-1.8814-2.8279-1.8814-4.5428V6.4253c0-2.7853,1.7771-5.2393,4.4221-6.1065.6429-.2114,1.3172-.3187,2.0032-.3187s1.3603.1073,2.0041.3191c.9501.311,1.8288.8515,2.5397,1.5623,1.2134,1.2147,1.8814,2.8282,1.8814,4.5439v27.1505c0,2.7846-1.7771,5.2383-4.4221,6.1055-.6428.2114-1.3171.3187-2.0031.3187Z" fill="#424242" stroke-width="0"/>
  <rect x="1.2035" y="14.7788" width="37.593" height="10.4425" rx="5.2212" ry="5.2212" fill="#424242" stroke-width="0"/>
  <path d="M25.2215,6.4252v27.1505c0,2.3153-1.5067,4.2775-3.5933,4.9616-.5126.1685-1.0593.2588-1.6281.2588s-1.1155-.0903-1.6281-.2588c-.7875-.2578-1.4917-.6972-2.0645-1.27-.944-.945-1.5288-2.2501-1.5288-3.6916V6.4252c0-2.3153,1.5067-4.2785,3.5933-4.9626.5126-.1685,1.0593-.2588,1.6281-.2588s1.1155.0903,1.6281.2588c.7875.2578,1.4917.6972,2.0645,1.27.944.945,1.5288,2.2511,1.5288,3.6926Z" fill="#424242" stroke-width="0"/>
</svg>