<?xml version="1.0" encoding="UTF-8"?>
<svg id="Layer_1" data-name="Layer 1" xmlns="http://www.w3.org/2000/svg" version="1.1" viewBox="0 0 538 242.728">
  <path d="M114.0612,242.728c-4.1628,0-8.2545-.6512-12.1617-1.9362-5.7649-1.8871-11.0973-5.1665-15.4113-9.4806-7.3631-7.3708-11.4168-17.16-11.4168-27.5668V38.9898c0-16.9017,10.7837-31.7931,26.8341-37.0557C105.8067.6513,109.8984,0,114.0612,0s8.2545.6512,12.1614,1.9362c5.7652,1.8874,11.0976,5.1668,15.4116,9.4806,7.3631,7.3708,11.4168,17.1623,11.4168,27.573v164.7546c0,16.8978-10.7837,31.7869-26.8344,37.0494-3.9009,1.2829-7.9926,1.9341-12.1554,1.9341Z" fill="#75a072" stroke-width="0"/>
  <rect x="0" y="89.681" width="228.1219" height="63.3672" rx="31.6836" ry="31.6836" fill="#98d696" stroke-width="0"/>
  <path d="M145.7459,38.9897v164.7547c0,14.0497-9.1432,25.9566-21.805,30.1081-3.1106,1.0227-6.4283,1.5706-9.8798,1.5706s-6.7692-.5478-9.8798-1.5706c-4.7786-1.5644-9.0519-4.2307-12.5278-7.7066-5.7282-5.7343-9.2772-13.654-9.2772-22.4015V38.9897c0-14.0497,9.1432-25.9626,21.805-30.1142,3.1107-1.0227,6.4283-1.5706,9.8798-1.5706s6.7692.5479,9.8798,1.5706c4.7786,1.5645,9.0519,4.2307,12.5278,7.7066,5.7282,5.7343,9.2771,13.6601,9.2771,22.4076Z" fill="#98d696" stroke-width="0"/>
  <g>
    <path d="M319.3239,140.332h-42.4978v-5.5033h42.4978v5.5033ZM314.5989,121.6897h-33.2781v-23.4597h33.2781v23.4597ZM287.7571,116.4235h20.4313v-12.8483h-20.4313v12.8483ZM301.1909,136.1452h-6.4105v-12.0851h6.4105v12.0851Z" fill="#75a072" stroke-width="0"/>
    <path d="M363.432,127.193h-42.4978v-5.3452h42.4978v5.3452ZM357.9922,102.5749h-24.9777v11.6898h-6.6915v-17.035h31.6693v5.3452ZM358.4518,117.0033h-32.1289v-5.2398h32.1289v5.2398ZM345.2737,142.5163h-6.4617v-17.5884h6.4617v17.5884Z" fill="#75a072" stroke-width="0"/>
    <path d="M383.9541,100.1126c1.8475,1.3956,3.2987,3.3875,4.3546,5.9767,1.0555,2.5892,1.5918,5.5951,1.6088,9.0177-.0171,3.4412-.5534,6.4558-1.6088,9.045-1.056,2.5892-2.5072,4.5772-4.3546,5.963-1.8475,1.3868-3.9457,2.0807-6.2953,2.0807-2.3842,0-4.504-.6939-6.3597-2.0807-1.8558-1.3858-3.3075-3.3738-4.3546-5.963-1.0467-2.5892-1.5703-5.6039-1.5703-9.045,0-3.4226.5236-6.4285,1.5703-9.0177,1.0472-2.5892,2.4989-4.5811,4.3546-5.9767s3.9755-2.0934,6.3597-2.0934c2.3496,0,4.4478.6978,6.2953,2.0934ZM374.5173,105.3652c-.9027.8608-1.6049,2.1158-2.1071,3.7652-.5026,1.6503-.7534,3.6432-.7534,5.9767,0,2.3354.2508,4.3273.7534,5.9776.5021,1.6493,1.2043,2.9005,2.1071,3.7515.9023.852,1.9494,1.2765,3.1416,1.2765,1.2087,0,2.2642-.4245,3.1669-1.2765.9023-.851,1.5962-2.1022,2.0812-3.7515.4855-1.6503.7281-3.6422.7281-5.9776,0-2.3335-.2425-4.3312-.7281-5.9893-.485-1.6591-1.1789-2.9142-2.0812-3.7652-.9027-.851-1.9582-1.2677-3.1669-1.2512-1.1921-.0166-2.2393.404-3.1416,1.2638ZM401.7938,142.5953h-6.5383v-47.9724h6.5383v47.9724ZM408.6893,118.3461h-8.3257v-5.6087h8.3257v5.6087Z" fill="#75a072" stroke-width="0"/>
    <path d="M429.2373,100.1126c1.864,1.3956,3.3201,3.3875,4.3664,5.9767,1.0482,2.5892,1.5713,5.5951,1.5713,9.0177,0,3.4412-.5231,6.4558-1.5713,9.045-1.0462,2.5892-2.5023,4.5772-4.3664,5.963-1.864,1.3868-3.9623,2.0807-6.2948,2.0807-2.3676.0176-4.483-.6714-6.3475-2.067-1.864-1.3956-3.3245-3.3875-4.38-5.9767-1.056-2.5892-1.5835-5.6039-1.5835-9.045,0-3.4226.5275-6.4285,1.5835-9.0177,1.0555-2.5892,2.516-4.5811,4.38-5.9767,1.8645-1.3956,3.9799-2.0934,6.3475-2.0934,2.3325,0,4.4308.6978,6.2948,2.0934ZM419.7619,105.3525c-.911.851-1.6088,2.1061-2.0939,3.7652-.4855,1.6581-.7198,3.6559-.7027,5.9893-.0171,2.3354.2171,4.3273.7027,5.9776.485,1.6493,1.1828,2.9005,2.0939,3.7515.9106.852,1.9704,1.2765,3.1806,1.2765,1.175,0,2.2115-.4245,3.1152-1.2765.9018-.851,1.6005-2.1022,2.0944-3.7515.4938-1.6503.7398-3.6422.7398-5.9776,0-2.3335-.2459-4.3263-.7398-5.9767-.4938-1.6493-1.1926-2.9044-2.0944-3.7652-.9037-.8598-1.9402-1.2804-3.1152-1.2638-1.2102-.0166-2.27.4001-3.1806,1.2512ZM448.1998,142.7271h-6.6149v-48.1041h6.6149v48.1041Z" fill="#75a072" stroke-width="0"/>
    <path d="M461.9674,104.0486h9.1426v-6.45h6.4617v22.959h-22.1685v-22.959h6.5642v6.45ZM485.2973,125.2314c2.4096.7281,4.2531,1.7899,5.5297,3.1855s1.9236,3.0674,1.9411,5.0154c-.0176,1.9138-.6685,3.5593-1.9538,4.9373-1.2863,1.378-3.1289,2.4262-5.5297,3.1464-2.4008.7193-5.2525,1.0794-8.5551,1.0794-3.287,0-6.126-.3601-8.518-1.0794-2.392-.7202-4.2307-1.7684-5.516-3.1464-1.2863-1.378-1.9285-3.0235-1.9285-4.9373,0-1.948.6422-3.6198,1.9285-5.0154,1.2853-1.3956,3.124-2.4574,5.516-3.1855s5.231-1.1018,8.518-1.1194c3.3026.0176,6.1582.3914,8.5678,1.1194ZM471.11,115.3178v-6.1084h-9.1426v6.1084h9.1426ZM471.5189,129.7071c-1.3966.3074-2.4603.7681-3.1923,1.3819-.732.6148-1.0979,1.3956-1.0979,2.3432,0,.8783.366,1.6201,1.0979,2.2251.732.6061,1.7957,1.0579,3.1923,1.3566,1.3956.2986,3.1328.4567,5.2105.4733,2.0768-.0166,3.8257-.1747,5.2476-.4733s2.4906-.7505,3.206-1.3566c.7144-.6051,1.0726-1.3468,1.0726-2.2251,0-.9476-.3582-1.7284-1.0726-2.3432-.7154-.6139-1.7801-1.0745-3.1933-1.3819-1.4132-.3064-3.1669-.4519-5.2603-.4343-2.0778-.0176-3.815.1278-5.2105.4343ZM489.3835,107.0243h-10.3676v-5.2662h10.3676v5.2662ZM489.3835,116.8978h-10.3676v-5.3716h10.3676v5.3716ZM494.4408,123.3225h-6.4871v-28.6995h6.4871v28.6995Z" fill="#75a072" stroke-width="0"/>
    <path d="M513.7625,115.6203c4.6992-.1835,9.2109-.5563,13.5363-1.1184l.3318,4.8182c-4.4952.7729-9.1982,1.2951-14.1101,1.5664-4.9129.2723-10.0249.3992-15.3369.3816l-.7661-5.2915c6.1972-.0527,11.6459-.1718,16.3451-.3562ZM518.5388,97.4142c1.7704.7193,3.1494,1.7333,4.137,3.041s1.4815,2.7951,1.4815,4.463c0,1.702-.4938,3.1855-1.4815,4.4493s-2.3618,2.2515-4.1243,2.962c-1.7625.7115-3.7671,1.0667-6.0147,1.0667-2.2817,0-4.3029-.3552-6.0655-1.0667-1.7625-.7105-3.1376-1.6981-4.1243-2.962-.9877-1.2638-1.4815-2.7473-1.4815-4.4493,0-1.6679.4938-3.1601,1.4815-4.4766.9867-1.3165,2.3657-2.3296,4.137-3.041,1.7704-.7105,3.7886-1.0657,6.0528-1.0657,2.231,0,4.2307.3591,6.002,1.0794ZM509.8812,137.8035h-6.5642v-7.27h6.5642v7.27ZM538,141.7795h-34.683v-5.4243h34.683v5.4243ZM509.6509,101.679c-.8169.2811-1.46.6978-1.9285,1.2512-.4685.5524-.6939,1.215-.6763,1.988-.0176.772.2079,1.4307.6763,1.9743.4685.5446,1.1116.9574,1.9285,1.2375.8169.2811,1.7791.4216,2.8859.4216,1.0726,0,2.0134-.1405,2.8224-.4216.8081-.2801,1.4424-.6929,1.9031-1.2375.4597-.5436.689-1.2024.689-1.9743,0-.7544-.2293-1.4132-.689-1.9753-.4606-.5612-1.095-.9828-1.9031-1.2638-.8091-.2801-1.7499-.4206-2.8224-.4206-1.1067,0-2.069.1405-2.8859.4206ZM516.419,129.7725h-6.5642v-10.5841h6.5642v10.5841ZM531.9218,127.114h-10.3694v-4.582h10.3694v4.582ZM536.9782,130.9319h-6.5378v-36.2035h6.5378v36.2035Z" fill="#75a072" stroke-width="0"/>
  </g>
</svg>