<?xml version="1.0" encoding="UTF-8"?>
<svg id="_레이어_1" data-name="레이어 1" xmlns="http://www.w3.org/2000/svg" version="1.1" viewBox="0 0 9.8 18.4">
  <path d="M9.6021,18.2004c.2637-.2659.2638-.6966.0008-.963l.0002-.0003L1.6321,9.1988,9.5952,1.1685c.002-.002.0046-.0025.0066-.0045.264-.2662.264-.6981,0-.9643-.2641-.2663-.6922-.2662-.9562,0-.0045.0045-.0057.0106-.01.0152L.6795,8.2382l-.4763.4803c-.2662.2684-.2732.6993-.007.9677l.4763.4803,7.971,8.0384.0036-.0037c.2642.2652.6913.2652.955-.0008Z" fill="#433e33" stroke-width="0"/>
  <rect x="-67.444" y="-16.6313" width="1.3652" height="12.7417" fill="#433e33" stroke-width="0"/>
  <rect x="-67.444" y="-5.2548" width="12.7422" height="1.3652" fill="#433e33" stroke-width="0"/>
  <path d="M-66.0788-16.6313c0,.377-.3057.6827-.6826.6827s-.6826-.3057-.6826-.6827.3056-.6826.6826-.6826.6826.3057.6826.6826Z" fill="#433e33" stroke-width="0"/>
  <circle cx="-66.7614" cy="-4.5722" r=".6826" fill="#433e33" stroke-width="0"/>
  <path d="M-54.0192-4.5722c0,.377-.3057.6826-.6826.6826s-.6827-.3056-.6827-.6826.3057-.6826.6827-.6826.6826.3057.6826.6826Z" fill="#433e33" stroke-width="0"/>
</svg>