<?xml version="1.0" encoding="UTF-8"?>
<svg id="Layer_1" data-name="Layer 1" xmlns="http://www.w3.org/2000/svg" version="1.1" viewBox="0 0 26 26">
  <rect width="26" height="26" rx="5" ry="5" fill="#e9e9e9" stroke-width="0"/>
  <g>
    <circle cx="10.2409" cy="13.1431" r=".6359" fill="#575559" stroke-width="0"/>
    <circle cx="15.759" cy="13.1431" r=".6359" fill="#575559" stroke-width="0"/>
    <ellipse cx="13" cy="16.5408" rx="1.4841" ry="1.1797" fill="#575559" stroke-width="0"/>
    <path d="M12.2293,18.6374c-.5056,0-.9168-.4112-.9168-.9168,0-.0809.0655-.1464.1464-.1464s.1464.0655.1464.1464c0,.344.28.624.624.624.3443,0,.6243-.28.6243-.624,0-.0809.0655-.1464.1464-.1464s.1464.0655.1464.1464c0,.5056-.4115.9168-.9171.9168Z" fill="#575559" stroke-width="0"/>
    <path d="M13.7706,18.6374c-.5056,0-.9171-.4112-.9171-.9168,0-.0809.0655-.1464.1464-.1464s.1464.0655.1464.1464c0,.344.28.624.6243.624s.6243-.28.6243-.624c0-.0809.0655-.1464.1464-.1464s.1464.0655.1464.1464c0,.5056-.4115.9168-.9171.9168Z" fill="#575559" stroke-width="0"/>
    <path d="M12.9999,23c-2.0503,0-3.9889-.6591-5.6117-1.9071-.9791.451-1.9746.7709-1.9849.7744-.0515.0157-.1081.0031-.1467-.0346-.0386-.0375-.0535-.0935-.0386-.1456.2108-.7318.2794-1.6254.2042-2.6569-1.0752-1.5485-1.6431-3.3635-1.6431-5.2511,0-1.0329.1707-2.0486.5076-3.0203-.0846-.1101-.1458-.2342-.1822-.3697l-1.6223-6.0535c-.0992-.3702.0034-.7531.2745-1.0242.2705-.2711.6528-.3738,1.024-.2742l6.0535,1.622c.191.0512.36.1516.4933.2927,1.7289-.5227,3.6157-.5227,5.3446,0,.1333-.141.302-.2414.4933-.2927l6.0535-1.622c.3695-.0995.7526.0031,1.024.2742.2711.2709.3738.6538.2748,1.0242h0l-1.6223,6.0535c-.036.1353-.0975.2594-.1824.3697.3371.9714.5079,1.9871.5079,3.0203,0,1.8879-.5682,3.7026-1.6434,5.2511-.0749,1.0317-.0063,1.9254.2045,2.6569.0149.052,0,.1081-.0386.1456-.0389.0377-.0958.0503-.1467.0346-.0103-.0034-1.0057-.3234-1.9849-.7744-1.6231,1.2479-3.5616,1.9071-5.612,1.9071ZM7.4074,20.7761c.032,0,.0641.0106.0904.0312,1.5854,1.2431,3.4879,1.8999,5.5022,1.8999s3.9168-.6569,5.5024-1.8999c.0435-.0343.1027-.0409.1524-.0174.6926.3246,1.4078.5851,1.7767.7129-.1679-.7209-.2162-1.5719-.143-2.5345.002-.026.0112-.0515.0263-.0729,1.0555-1.5062,1.6134-3.2751,1.6134-5.1161,0-1.0277-.1744-2.0375-.5187-3.0012-.0183-.0509-.0069-.1078.0295-.1478.0838-.0918.1421-.1982.1736-.3168l1.6223-6.0535c.0718-.2679-.0026-.5452-.1987-.7414-.1959-.1959-.473-.2697-.7409-.1985l-6.0535,1.622c-.163.0438-.3031.1363-.4055.2678-.0372.0483-.1012.0688-.1593.0499-1.7283-.5425-3.6254-.5425-5.3537,0-.0575.0189-.1221-.0016-.1593-.0499-.1024-.1315-.2425-.2242-.4052-.2678l-6.0538-1.622c-.2677-.0712-.545.0026-.7409.1985-.1962.1962-.2705.4734-.1985.7414l1.622,6.0532c.0317.1192.0904.2259.1736.3171.0363.04.0478.0969.0295.1478-.344.964-.5184,1.9737-.5184,3.0012,0,1.8407.5579,3.61,1.6131,5.1161.0152.0214.0243.0466.0263.0729.0735.9623.0255,1.8133-.1427,2.5345.3689-.1278,1.0844-.3883,1.7767-.7129.0197-.0092.0409-.0137.0621-.0137ZM23.3763,4.2978h.0029-.0029Z" fill="#575559" stroke-width="0"/>
  </g>
</svg>