<?xml version="1.0" encoding="UTF-8"?>
<svg id="Layer_1" data-name="Layer 1" xmlns="http://www.w3.org/2000/svg" version="1.1" viewBox="0 0 100 68.6246">
  <circle cx="6.0225" cy="9.1914" r="1.3218" fill="#3e9dac" stroke-width="0"/>
  <circle cx="6.0225" cy="6.0284" r="1.3218" fill="#3e9dac" stroke-width="0"/>
  <circle cx="6.0225" cy="2.5261" r="1.3218" fill="#3e9dac" stroke-width="0"/>
  <rect x="4.6907" y="2.5261" width="2.6437" height="3.5023" fill="#3e9dac" stroke-width="0"/>
  <circle cx="14.7425" cy="17.0019" r="1.3218" fill="#3e9dac" stroke-width="0"/>
  <circle cx="14.7425" cy="1.3218" r="1.3218" fill="#3e9dac" stroke-width="0"/>
  <rect x="13.4106" y="1.3218" width="2.6437" height="15.6801" fill="#3e9dac" stroke-width="0"/>
  <circle cx="43.7708" cy="17.0049" r="1.3218" fill="#3e9dac" stroke-width="0"/>
  <circle cx="43.7708" cy="1.3249" r="1.3218" fill="#3e9dac" stroke-width="0"/>
  <circle cx="48.0798" cy="9.1232" r="1.3218" fill="#3e9dac" stroke-width="0"/>
  <rect x="42.4389" y="1.3249" width="2.6437" height="15.6801" fill="#3e9dac" stroke-width="0"/>
  <circle cx="28.0807" cy="20.0847" r="1.3218" fill="#3e9dac" stroke-width="0"/>
  <circle cx="43.7608" cy="20.0847" r="1.3218" fill="#3e9dac" stroke-width="0"/>
  <rect x="34.5989" y="12.2347" width="2.6437" height="15.6801" transform="translate(55.9955 -15.846) rotate(90)" fill="#3e9dac" stroke-width="0"/>
  <circle cx="43.7758" cy="29.5019" r="1.3218" fill="#3e9dac" stroke-width="0"/>
  <rect x="42.4438" y="20.0844" width="2.6437" height="9.4176" fill="#3e9dac" stroke-width="0"/>
  <circle cx="78.8619" cy="21.3358" r="1.3218" fill="#3e9dac" stroke-width="0"/>
  <circle cx="94.5419" cy="21.3358" r="1.3218" fill="#3e9dac" stroke-width="0"/>
  <rect x="85.3801" y="13.4857" width="2.6437" height="15.6801" transform="translate(108.0276 -65.3761) rotate(90)" fill="#3e9dac" stroke-width="0"/>
  <rect x="85.3801" y="20.1407" width="2.6437" height="15.6801" transform="translate(114.6826 -58.7211) rotate(90)" fill="#3e9dac" stroke-width="0"/>
  <circle cx="94.557" cy="27.9809" r="1.3218" fill="#3e9dac" stroke-width="0"/>
  <rect x="93.225" y="21.3352" width="2.6437" height="6.6455" fill="#3e9dac" stroke-width="0"/>
  <circle cx="78.8669" cy="27.9809" r="1.3218" fill="#3e9dac" stroke-width="0"/>
  <rect x="77.5349" y="21.3352" width="2.6437" height="6.6455" fill="#3e9dac" stroke-width="0"/>
  <circle cx="53.5464" cy="3.6737" r="1.3218" fill="#3e9dac" stroke-width="0"/>
  <circle cx="66.0635" cy="3.6737" r="1.3218" fill="#3e9dac" stroke-width="0"/>
  <circle cx="69.2265" cy="6.8367" r="1.3218" fill="#3e9dac" stroke-width="0"/>
  <circle cx="69.2265" cy="3.6737" r="1.3218" fill="#3e9dac" stroke-width="0"/>
  <rect x="58.4831" y="-2.5948" width="2.6437" height="12.5171" transform="translate(63.4686 -56.1412) rotate(90)" fill="#3e9dac" stroke-width="0"/>
  <circle cx="69.2415" cy="13.0909" r="1.3218" fill="#3e9dac" stroke-width="0"/>
  <rect x="67.9095" y="6.8367" width="2.6437" height="6.2541" fill="#3e9dac" stroke-width="0"/>
  <rect x="43.9425" y="6.3078" width="2.6437" height="5.6308" transform="translate(54.3875 -36.1412) rotate(90)" fill="#3e9dac" stroke-width="0"/>
  <circle cx="91.2325" cy="53.6456" r="1.3218" fill="#3e9dac" stroke-width="0"/>
  <circle cx="75.5524" cy="53.6456" r="1.3218" fill="#3e9dac" stroke-width="0"/>
  <circle cx="81.6528" cy="47.0242" r="1.3218" fill="#3e9dac" stroke-width="0"/>
  <rect x="82.0706" y="45.8156" width="2.6437" height="15.6801" transform="translate(29.7367 137.048) rotate(-89.9999)" fill="#3e9dac" stroke-width="0"/>
  <rect x="80.3314" y="47.0255" width="2.6437" height="7.9533" fill="#3e9dac" stroke-width="0"/>
  <circle cx="70.199" cy="38.3731" r="1.3218" fill="#3e9dac" stroke-width="0"/>
  <circle cx="70.199" cy="67.3028" r="1.3218" fill="#3e9dac" stroke-width="0"/>
  <circle cx="63.5917" cy="49.3761" r="1.3218" fill="#3e9dac" stroke-width="0"/>
  <rect x="68.8872" y="38.3731" width="2.6437" height="28.9297" transform="translate(140.418 105.6758) rotate(180)" fill="#3e9dac" stroke-width="0"/>
  <rect x="66.2394" y="45.4065" width="2.6437" height="7.9392" transform="translate(18.1851 116.9374) rotate(-90)" fill="#3e9dac" stroke-width="0"/>
  <circle cx="49.9513" cy="16.1107" r="1.3218" fill="#3e9dac" stroke-width="0"/>
  <circle cx="72.7698" cy="16.1107" r="1.3218" fill="#3e9dac" stroke-width="0"/>
  <circle cx="61.6668" cy="29.5671" r="1.3218" fill="#3e9dac" stroke-width="0"/>
  <rect x="60.0384" y="4.6906" width="2.6437" height="22.8185" transform="translate(77.4601 -45.2604) rotate(90.0001)" fill="#3e9dac" stroke-width="0"/>
  <circle cx="75.7321" cy="16.635" r="1.3218" fill="#3e9dac" stroke-width="0"/>
  <circle cx="98.5506" cy="16.635" r="1.3218" fill="#3e9dac" stroke-width="0"/>
  <rect x="85.8193" y="5.2148" width="2.6437" height="22.8185" transform="translate(103.7652 -70.5171) rotate(90.0001)" fill="#3e9dac" stroke-width="0"/>
  <rect x="60.3459" y="14.7921" width="2.6437" height="14.7782" transform="translate(123.3355 44.3625) rotate(-179.9999)" fill="#3e9dac" stroke-width="0"/>
  <circle cx="47.9374" cy="62.6069" r="1.3218" fill="#3e9dac" stroke-width="0"/>
  <circle cx="25.1189" cy="62.6068" r="1.3218" fill="#3e9dac" stroke-width="0"/>
  <circle cx="36.2564" cy="55.094" r="1.3218" fill="#3e9dac" stroke-width="0"/>
  <rect x="35.2066" y="51.2085" width="2.6437" height="22.8185" transform="translate(-26.0894 99.1461) rotate(-89.9999)" fill="#3e9dac" stroke-width="0"/>
  <rect x="34.933" y="55.0945" width="2.6437" height="8.8321" fill="#3e9dac" stroke-width="0"/>
  <rect x="16.2592" y="5.2718" width="2.6437" height="7.7801" transform="translate(26.7429 -8.4191) rotate(90)" fill="#3e9dac" stroke-width="0"/>
  <circle cx="20.3918" cy="17.4508" r="1.3218" fill="#3e9dac" stroke-width="0"/>
  <circle cx="20.3918" cy="1.3218" r="1.3218" fill="#3e9dac" stroke-width="0"/>
  <rect x="19.0599" y="1.3218" width="2.6437" height="16.129" fill="#3e9dac" stroke-width="0"/>
  <circle cx="36.905" cy="3.5725" r="1.3218" fill="#3e9dac" stroke-width="0"/>
  <circle cx="33.7421" cy="3.5725" r="1.3218" fill="#3e9dac" stroke-width="0"/>
  <circle cx="25.806" cy="3.5725" r="1.3218" fill="#3e9dac" stroke-width="0"/>
  <rect x="28.4522" y="-.3855" width="2.6437" height="7.936" transform="translate(26.1916 33.3565) rotate(-90)" fill="#3e9dac" stroke-width="0"/>
  <circle cx="44.5331" cy="51.1983" r="1.3218" fill="#3e9dac" stroke-width="0"/>
  <circle cx="28.853" cy="51.1983" r="1.3218" fill="#3e9dac" stroke-width="0"/>
  <circle cx="28.853" cy="48.0353" r="1.3218" fill="#3e9dac" stroke-width="0"/>
  <circle cx="32.016" cy="51.2083" r="1.3218" fill="#3e9dac" stroke-width="0"/>
  <rect x="36.9527" y="44.9498" width="2.6437" height="12.5171" transform="translate(-12.9338 89.4829) rotate(-90)" fill="#3e9dac" stroke-width="0"/>
  <circle cx="44.5331" cy="41.7761" r="1.3218" fill="#3e9dac" stroke-width="0"/>
  <rect x="35.3712" y="33.9461" width="2.6437" height="15.6801" transform="translate(-5.0931 78.4792) rotate(-90)" fill="#3e9dac" stroke-width="0"/>
  <circle cx="28.8379" cy="41.7811" r="1.3218" fill="#3e9dac" stroke-width="0"/>
  <rect x="27.5263" y="41.7812" width="2.6437" height="6.2541" transform="translate(57.6962 89.8164) rotate(-180)" fill="#3e9dac" stroke-width="0"/>
  <circle cx="78.8017" cy="2.4522" r="1.3218" fill="#3e9dac" stroke-width="0"/>
  <circle cx="94.4818" cy="2.4522" r="1.3218" fill="#3e9dac" stroke-width="0"/>
  <rect x="85.3274" y="-5.4053" width="2.6437" height="15.6951" transform="translate(89.0915 -84.207) rotate(90)" fill="#3e9dac" stroke-width="0"/>
  <circle cx="78.8017" cy="12.0661" r="1.3218" fill="#3e9dac" stroke-width="0"/>
  <circle cx="94.4818" cy="12.0661" r="1.3218" fill="#3e9dac" stroke-width="0"/>
  <rect x="85.3274" y="4.2085" width="2.6437" height="15.6951" transform="translate(98.7053 -74.5932) rotate(90)" fill="#3e9dac" stroke-width="0"/>
  <circle cx="78.8017" cy="7.2592" r="1.3218" fill="#3e9dac" stroke-width="0"/>
  <circle cx="81.9647" cy="7.2592" r="1.3218" fill="#3e9dac" stroke-width="0"/>
  <circle cx="78.8017" cy="10.4205" r="1.3218" fill="#3e9dac" stroke-width="0"/>
  <rect x="86.9089" y=".9831" width="2.6437" height="12.5321" transform="translate(95.48 -80.9816) rotate(90)" fill="#3e9dac" stroke-width="0"/>
  <circle cx="94.4968" cy="7.2539" r="1.3218" fill="#3e9dac" stroke-width="0"/>
  <rect x="93.1648" y="2.4521" width="2.6437" height="4.8018" fill="#3e9dac" stroke-width="0"/>
  <rect x="77.4798" y="10.4205" width="2.6437" height="1.6404" fill="#3e9dac" stroke-width="0"/>
  <circle cx="35.4201" cy="6.3652" r="1.3218" transform="translate(13.1712 34.651) rotate(-62)" fill="#3e9dac" stroke-width="0"/>
  <circle cx="30.043" cy="16.478" r="1.3218" transform="translate(1.3895 35.2685) rotate(-62)" fill="#3e9dac" stroke-width="0"/>
  <rect x="31.4186" y="5.6996" width="2.6437" height="11.4534" transform="translate(56.2842 36.8858) rotate(-152)" fill="#3e9dac" stroke-width="0"/>
  <circle cx="4.2083" cy="11.7824" r="1.3218" transform="translate(-7.857 8.4715) rotate(-55)" fill="#3e9dac" stroke-width="0"/>
  <circle cx="1.3219" cy="15.9045" r="1.3218" transform="translate(-12.4645 7.8649) rotate(-55)" fill="#3e9dac" stroke-width="0"/>
  <rect x="1.4515" y="11.3331" width="2.6437" height="5.0322" transform="translate(-2.8985 26.7845) rotate(-145)" fill="#3e9dac" stroke-width="0"/>
  <circle cx="8.0976" cy="11.5786" r="1.3218" transform="translate(-5.6099 8.1526) rotate(-41)" fill="#3e9dac" stroke-width="0"/>
  <circle cx="11.3991" cy="15.3764" r="1.3218" transform="translate(-7.2918 11.2501) rotate(-41)" fill="#3e9dac" stroke-width="0"/>
  <rect x="8.4341" y="10.9548" width="2.6437" height="5.0322" transform="translate(25.9565 17.2371) rotate(139)" fill="#3e9dac" stroke-width="0"/>
  <circle cx="57.8373" cy="50.698" r="1.3218" fill="#3e9dac" stroke-width="0"/>
  <circle cx="57.8373" cy="47.535" r="1.3218" fill="#3e9dac" stroke-width="0"/>
  <circle cx="57.8373" cy="44.0327" r="1.3218" fill="#3e9dac" stroke-width="0"/>
  <rect x="56.5055" y="44.0327" width="2.6437" height="3.5023" fill="#3e9dac" stroke-width="0"/>
  <circle cx="56.0231" cy="53.2889" r="1.3218" transform="translate(-19.7622 68.6151) rotate(-55)" fill="#3e9dac" stroke-width="0"/>
  <circle cx="53.1367" cy="57.4111" r="1.3218" transform="translate(-24.3697 68.0085) rotate(-55)" fill="#3e9dac" stroke-width="0"/>
  <rect x="53.2663" y="52.8397" width="2.6437" height="5.0322" transform="translate(67.5533 132.011) rotate(-145)" fill="#3e9dac" stroke-width="0"/>
  <circle cx="59.9124" cy="53.0851" r="1.3218" transform="translate(-20.131 52.3273) rotate(-41)" fill="#3e9dac" stroke-width="0"/>
  <circle cx="63.2138" cy="56.883" r="1.3218" transform="translate(-21.8128 55.4249) rotate(-41)" fill="#3e9dac" stroke-width="0"/>
  <rect x="60.2489" y="52.4614" width="2.6437" height="5.0322" transform="translate(144.1071 56.0755) rotate(139)" fill="#3e9dac" stroke-width="0"/>
  <path d="M13.0859,21.6168c3.4515,0,5.7413,1.6859,5.7413,2.8011s-2.2898,2.8011-5.7413,2.8011-5.7415-1.6859-5.7415-2.8011,2.2898-2.8011,5.7415-2.8011M13.0859,18.9732c-4.631,0-8.3853,2.4377-8.3853,5.4448s3.7544,5.4448,8.3853,5.4448,8.3851-2.4377,8.3851-5.4448-3.7541-5.4448-8.3851-5.4448h0Z" fill="#3e9dac" stroke-width="0"/>
  <circle cx="76.5201" cy="41.8244" r="1.3218" fill="#3e9dac" stroke-width="0"/>
  <circle cx="88.2058" cy="41.8244" r="1.3218" fill="#3e9dac" stroke-width="0"/>
  <circle cx="88.2058" cy="44.9874" r="1.3218" fill="#3e9dac" stroke-width="0"/>
  <circle cx="85.0428" cy="41.8244" r="1.3218" fill="#3e9dac" stroke-width="0"/>
  <rect x="79.4596" y="37.5531" width="2.6437" height="8.5227" transform="translate(122.5958 -38.9671) rotate(90)" fill="#3e9dac" stroke-width="0"/>
  <circle cx="88.2208" cy="49.9198" r="1.3218" fill="#3e9dac" stroke-width="0"/>
  <rect x="86.8888" y="44.9873" width="2.6437" height="4.9323" fill="#3e9dac" stroke-width="0"/>
  <circle cx="94.3692" cy="60.1134" r="1.3218" fill="#3e9dac" stroke-width="0"/>
  <circle cx="94.3692" cy="38.4482" r="1.3218" fill="#3e9dac" stroke-width="0"/>
  <circle cx="98.6782" cy="49.0748" r="1.3218" fill="#3e9dac" stroke-width="0"/>
  <rect x="93.0373" y="38.4482" width="2.6437" height="21.6652" fill="#3e9dac" stroke-width="0"/>
  <rect x="94.5409" y="46.2594" width="2.6437" height="5.6308" transform="translate(144.9375 -46.788) rotate(90)" fill="#3e9dac" stroke-width="0"/>
  <circle cx="95.6558" cy="65.698" r="1.3218" fill="#3e9dac" stroke-width="0"/>
  <circle cx="79.9757" cy="65.698" r="1.3218" fill="#3e9dac" stroke-width="0"/>
  <rect x="86.4864" y="57.8605" width="2.6437" height="15.6951" transform="translate(22.1002 153.5163) rotate(-90)" fill="#3e9dac" stroke-width="0"/>
  <circle cx="79.9607" cy="58.1702" r="1.3218" fill="#3e9dac" stroke-width="0"/>
  <rect x="78.649" y="58.1703" width="2.6437" height="7.5378" transform="translate(159.9417 123.8785) rotate(-180)" fill="#3e9dac" stroke-width="0"/>
</svg>