<?xml version="1.0" encoding="UTF-8"?>
<svg id="Layer_1" data-name="Layer 1" xmlns="http://www.w3.org/2000/svg" version="1.1" viewBox="0 0 1920 40">
  <defs>
    <style>
      .cls-1 {
        fill: #3e9dac;
        stroke-width: 0px;
      }
    </style>
  </defs>
  <g>
    <ellipse class="cls-1" cx="11.3" cy="20" rx="5.6" ry=".5"/>
    <ellipse class="cls-1" cx="26.4" cy="20" rx="5.6" ry=".5"/>
    <rect class="cls-1" x="11.3" y="19.5" width="15" height="1"/>
  </g>
  <g>
    <ellipse class="cls-1" cx="49" cy="20" rx="5.6" ry=".5"/>
    <ellipse class="cls-1" cx="63.9" cy="20" rx="5.6" ry=".5"/>
    <rect class="cls-1" x="49" y="19.5" width="15" height="1"/>
  </g>
  <g>
    <ellipse class="cls-1" cx="86.6" cy="20" rx="5.6" ry=".5"/>
    <ellipse class="cls-1" cx="101.6" cy="20" rx="5.6" ry=".5"/>
    <rect class="cls-1" x="86.6" y="19.5" width="15" height="1"/>
  </g>
  <g>
    <ellipse class="cls-1" cx="124.3" cy="20" rx="5.6" ry=".5"/>
    <ellipse class="cls-1" cx="139.3" cy="20" rx="5.6" ry=".5"/>
    <rect class="cls-1" x="124.3" y="19.5" width="15" height="1"/>
  </g>
  <g>
    <ellipse class="cls-1" cx="162" cy="20" rx="5.6" ry=".5"/>
    <ellipse class="cls-1" cx="176.9" cy="20" rx="5.6" ry=".5"/>
    <rect class="cls-1" x="162" y="19.5" width="15" height="1"/>
  </g>
  <g>
    <ellipse class="cls-1" cx="199.6" cy="20" rx="5.6" ry=".5"/>
    <ellipse class="cls-1" cx="214.5" cy="20" rx="5.6" ry=".5"/>
    <rect class="cls-1" x="199.6" y="19.5" width="15" height="1"/>
  </g>
  <g>
    <ellipse class="cls-1" cx="237.3" cy="20" rx="5.6" ry=".5"/>
    <ellipse class="cls-1" cx="252.2" cy="20" rx="5.6" ry=".5"/>
    <rect class="cls-1" x="237.3" y="19.5" width="15" height="1"/>
  </g>
  <g>
    <ellipse class="cls-1" cx="274.9" cy="20" rx="5.6" ry=".5"/>
    <ellipse class="cls-1" cx="289.9" cy="20" rx="5.6" ry=".5"/>
    <rect class="cls-1" x="274.9" y="19.5" width="15" height="1"/>
  </g>
  <g>
    <ellipse class="cls-1" cx="312.5" cy="20" rx="5.6" ry=".5"/>
    <ellipse class="cls-1" cx="327.5" cy="20" rx="5.6" ry=".5"/>
    <rect class="cls-1" x="312.5" y="19.5" width="15" height="1"/>
  </g>
  <g>
    <ellipse class="cls-1" cx="350.1" cy="20" rx="5.6" ry=".5"/>
    <ellipse class="cls-1" cx="365.1" cy="20" rx="5.6" ry=".5"/>
    <rect class="cls-1" x="350.1" y="19.5" width="15" height="1"/>
  </g>
  <g>
    <g>
      <ellipse class="cls-1" cx="387.8" cy="20" rx="5.6" ry=".5"/>
      <ellipse class="cls-1" cx="402.8" cy="20" rx="5.6" ry=".5"/>
      <rect class="cls-1" x="387.8" y="19.5" width="15" height="1"/>
    </g>
    <g>
      <ellipse class="cls-1" cx="425.4" cy="20" rx="5.6" ry=".5"/>
      <ellipse class="cls-1" cx="440.4" cy="20" rx="5.6" ry=".5"/>
      <rect class="cls-1" x="425.4" y="19.5" width="15" height="1"/>
    </g>
    <g>
      <ellipse class="cls-1" cx="463.1" cy="20" rx="5.6" ry=".5"/>
      <ellipse class="cls-1" cx="478.1" cy="20" rx="5.6" ry=".5"/>
      <rect class="cls-1" x="463.1" y="19.5" width="15" height="1"/>
    </g>
    <g>
      <ellipse class="cls-1" cx="500.8" cy="20" rx="5.6" ry=".5"/>
      <ellipse class="cls-1" cx="515.7" cy="20" rx="5.6" ry=".5"/>
      <rect class="cls-1" x="500.8" y="19.5" width="15" height="1"/>
    </g>
    <g>
      <ellipse class="cls-1" cx="538.4" cy="20" rx="5.6" ry=".5"/>
      <ellipse class="cls-1" cx="553.4" cy="20" rx="5.6" ry=".5"/>
      <rect class="cls-1" x="538.4" y="19.5" width="15" height="1"/>
    </g>
    <g>
      <ellipse class="cls-1" cx="576.1" cy="20" rx="5.6" ry=".5"/>
      <ellipse class="cls-1" cx="591" cy="20" rx="5.6" ry=".5"/>
      <rect class="cls-1" x="576.1" y="19.5" width="15" height="1"/>
    </g>
    <g>
      <ellipse class="cls-1" cx="613.6" cy="20" rx="5.6" ry=".5"/>
      <ellipse class="cls-1" cx="628.7" cy="20" rx="5.6" ry=".5"/>
      <rect class="cls-1" x="613.6" y="19.5" width="15" height="1"/>
    </g>
    <g>
      <ellipse class="cls-1" cx="651.3" cy="20" rx="5.6" ry=".5"/>
      <ellipse class="cls-1" cx="666.3" cy="20" rx="5.6" ry=".5"/>
      <rect class="cls-1" x="651.3" y="19.5" width="15" height="1"/>
    </g>
    <g>
      <ellipse class="cls-1" cx="689" cy="20" rx="5.6" ry=".5"/>
      <ellipse class="cls-1" cx="703.9" cy="20" rx="5.6" ry=".5"/>
      <rect class="cls-1" x="689" y="19.5" width="15" height="1"/>
    </g>
    <g>
      <ellipse class="cls-1" cx="726.6" cy="20" rx="5.6" ry=".5"/>
      <ellipse class="cls-1" cx="741.6" cy="20" rx="5.6" ry=".5"/>
      <rect class="cls-1" x="726.6" y="19.5" width="15" height="1"/>
    </g>
  </g>
  <g>
    <g>
      <ellipse class="cls-1" cx="764.3" cy="20" rx="5.6" ry=".5"/>
      <ellipse class="cls-1" cx="779.2" cy="20" rx="5.6" ry=".5"/>
      <rect class="cls-1" x="764.3" y="19.5" width="15" height="1"/>
    </g>
    <g>
      <ellipse class="cls-1" cx="801.9" cy="20" rx="5.6" ry=".5"/>
      <ellipse class="cls-1" cx="816.9" cy="20" rx="5.6" ry=".5"/>
      <rect class="cls-1" x="801.9" y="19.5" width="15" height="1"/>
    </g>
    <g>
      <ellipse class="cls-1" cx="839.6" cy="20" rx="5.6" ry=".5"/>
      <ellipse class="cls-1" cx="854.5" cy="20" rx="5.6" ry=".5"/>
      <rect class="cls-1" x="839.6" y="19.5" width="15" height="1"/>
    </g>
    <g>
      <ellipse class="cls-1" cx="877.2" cy="20" rx="5.6" ry=".5"/>
      <ellipse class="cls-1" cx="892.2" cy="20" rx="5.6" ry=".5"/>
      <rect class="cls-1" x="877.2" y="19.5" width="15" height="1"/>
    </g>
    <g>
      <ellipse class="cls-1" cx="914.9" cy="20" rx="5.6" ry=".5"/>
      <ellipse class="cls-1" cx="929.9" cy="20" rx="5.6" ry=".5"/>
      <rect class="cls-1" x="914.9" y="19.5" width="15" height="1"/>
    </g>
    <g>
      <ellipse class="cls-1" cx="952.4" cy="20" rx="5.6" ry=".5"/>
      <ellipse class="cls-1" cx="967.5" cy="20" rx="5.6" ry=".5"/>
      <rect class="cls-1" x="952.4" y="19.5" width="15" height="1"/>
    </g>
    <g>
      <ellipse class="cls-1" cx="990.1" cy="20" rx="5.6" ry=".5"/>
      <ellipse class="cls-1" cx="1005.1" cy="20" rx="5.6" ry=".5"/>
      <rect class="cls-1" x="990.1" y="19.5" width="15" height="1"/>
    </g>
    <g>
      <ellipse class="cls-1" cx="1027.8" cy="20" rx="5.6" ry=".5"/>
      <ellipse class="cls-1" cx="1042.7" cy="20" rx="5.6" ry=".5"/>
      <rect class="cls-1" x="1027.8" y="19.5" width="15" height="1"/>
    </g>
    <g>
      <ellipse class="cls-1" cx="1065.4" cy="20" rx="5.6" ry=".5"/>
      <ellipse class="cls-1" cx="1080.4" cy="20" rx="5.6" ry=".5"/>
      <rect class="cls-1" x="1065.4" y="19.5" width="15" height="1"/>
    </g>
    <g>
      <ellipse class="cls-1" cx="1103.1" cy="20" rx="5.6" ry=".5"/>
      <ellipse class="cls-1" cx="1118" cy="20" rx="5.6" ry=".5"/>
      <rect class="cls-1" x="1103.1" y="19.5" width="15" height="1"/>
    </g>
  </g>
  <g>
    <g>
      <ellipse class="cls-1" cx="1140.8" cy="20" rx="5.6" ry=".5"/>
      <ellipse class="cls-1" cx="1155.7" cy="20" rx="5.6" ry=".5"/>
      <rect class="cls-1" x="1140.8" y="19.5" width="15" height="1"/>
    </g>
    <g>
      <ellipse class="cls-1" cx="1178.4" cy="20" rx="5.6" ry=".5"/>
      <ellipse class="cls-1" cx="1193.3" cy="20" rx="5.6" ry=".5"/>
      <rect class="cls-1" x="1178.4" y="19.5" width="15" height="1"/>
    </g>
    <g>
      <ellipse class="cls-1" cx="1216" cy="20" rx="5.6" ry=".5"/>
      <ellipse class="cls-1" cx="1231" cy="20" rx="5.6" ry=".5"/>
      <rect class="cls-1" x="1216" y="19.5" width="15" height="1"/>
    </g>
    <g>
      <ellipse class="cls-1" cx="1253.6" cy="20" rx="5.6" ry=".5"/>
      <ellipse class="cls-1" cx="1268.7" cy="20" rx="5.6" ry=".5"/>
      <rect class="cls-1" x="1253.6" y="19.5" width="15" height="1"/>
    </g>
    <g>
      <ellipse class="cls-1" cx="1291.3" cy="20" rx="5.6" ry=".5"/>
      <ellipse class="cls-1" cx="1306.3" cy="20" rx="5.6" ry=".5"/>
      <rect class="cls-1" x="1291.3" y="19.5" width="15" height="1"/>
    </g>
    <g>
      <ellipse class="cls-1" cx="1328.9" cy="20" rx="5.6" ry=".5"/>
      <ellipse class="cls-1" cx="1343.9" cy="20" rx="5.6" ry=".5"/>
      <rect class="cls-1" x="1328.9" y="19.5" width="15" height="1"/>
    </g>
    <g>
      <ellipse class="cls-1" cx="1366.6" cy="20" rx="5.6" ry=".5"/>
      <ellipse class="cls-1" cx="1381.5" cy="20" rx="5.6" ry=".5"/>
      <rect class="cls-1" x="1366.6" y="19.5" width="15" height="1"/>
    </g>
    <g>
      <ellipse class="cls-1" cx="1404.2" cy="20" rx="5.6" ry=".5"/>
      <ellipse class="cls-1" cx="1419.2" cy="20" rx="5.6" ry=".5"/>
      <rect class="cls-1" x="1404.2" y="19.5" width="15" height="1"/>
    </g>
    <g>
      <ellipse class="cls-1" cx="1441.9" cy="20" rx="5.6" ry=".5"/>
      <ellipse class="cls-1" cx="1456.9" cy="20" rx="5.6" ry=".5"/>
      <rect class="cls-1" x="1441.9" y="19.5" width="15" height="1"/>
    </g>
    <g>
      <ellipse class="cls-1" cx="1479.6" cy="20" rx="5.6" ry=".5"/>
      <ellipse class="cls-1" cx="1494.5" cy="20" rx="5.6" ry=".5"/>
      <rect class="cls-1" x="1479.6" y="19.5" width="15" height="1"/>
    </g>
  </g>
  <g>
    <g>
      <ellipse class="cls-1" cx="1517.2" cy="20" rx="5.6" ry=".5"/>
      <ellipse class="cls-1" cx="1532.2" cy="20" rx="5.6" ry=".5"/>
      <rect class="cls-1" x="1517.2" y="19.5" width="15" height="1"/>
    </g>
    <g>
      <ellipse class="cls-1" cx="1554.9" cy="20" rx="5.6" ry=".5"/>
      <ellipse class="cls-1" cx="1569.8" cy="20" rx="5.6" ry=".5"/>
      <rect class="cls-1" x="1554.9" y="19.5" width="15" height="1"/>
    </g>
    <g>
      <ellipse class="cls-1" cx="1592.4" cy="20" rx="5.6" ry=".5"/>
      <ellipse class="cls-1" cx="1607.5" cy="20" rx="5.6" ry=".5"/>
      <rect class="cls-1" x="1592.4" y="19.5" width="15" height="1"/>
    </g>
    <g>
      <ellipse class="cls-1" cx="1630.1" cy="20" rx="5.6" ry=".5"/>
      <ellipse class="cls-1" cx="1645" cy="20" rx="5.6" ry=".5"/>
      <rect class="cls-1" x="1630.1" y="19.5" width="15" height="1"/>
    </g>
    <g>
      <ellipse class="cls-1" cx="1667.8" cy="20" rx="5.6" ry=".5"/>
      <ellipse class="cls-1" cx="1682.7" cy="20" rx="5.6" ry=".5"/>
      <rect class="cls-1" x="1667.8" y="19.5" width="15" height="1"/>
    </g>
    <g>
      <ellipse class="cls-1" cx="1705.4" cy="20" rx="5.6" ry=".5"/>
      <ellipse class="cls-1" cx="1720.3" cy="20" rx="5.6" ry=".5"/>
      <rect class="cls-1" x="1705.4" y="19.5" width="15" height="1"/>
    </g>
    <g>
      <ellipse class="cls-1" cx="1743" cy="20" rx="5.6" ry=".5"/>
      <ellipse class="cls-1" cx="1758" cy="20" rx="5.6" ry=".5"/>
      <rect class="cls-1" x="1743" y="19.5" width="15" height="1"/>
    </g>
    <g>
      <ellipse class="cls-1" cx="1780.7" cy="20" rx="5.6" ry=".5"/>
      <ellipse class="cls-1" cx="1795.7" cy="20" rx="5.6" ry=".5"/>
      <rect class="cls-1" x="1780.7" y="19.5" width="15" height="1"/>
    </g>
    <g>
      <ellipse class="cls-1" cx="1818.4" cy="20" rx="5.6" ry=".5"/>
      <ellipse class="cls-1" cx="1833.3" cy="20" rx="5.6" ry=".5"/>
      <rect class="cls-1" x="1818.4" y="19.5" width="15" height="1"/>
    </g>
    <g>
      <ellipse class="cls-1" cx="1856" cy="20" rx="5.6" ry=".5"/>
      <ellipse class="cls-1" cx="1871" cy="20" rx="5.6" ry=".5"/>
      <rect class="cls-1" x="1856" y="19.5" width="15" height="1"/>
    </g>
  </g>
  <g>
    <ellipse class="cls-1" cx="1893.6" cy="20" rx="5.6" ry=".5"/>
    <ellipse class="cls-1" cx="1908.7" cy="20" rx="5.6" ry=".5"/>
    <rect class="cls-1" x="1893.6" y="19.5" width="15" height="1"/>
  </g>
</svg>