<?xml version="1.0" encoding="UTF-8"?>
<svg id="Layer_1" data-name="Layer 1" xmlns="http://www.w3.org/2000/svg" version="1.1" viewBox="0 0 318.4732 250">
  <g>
    <circle cx="13.1647" cy="120.0836" r="2.8894" fill="#3e9dac" stroke-width="0"/>
    <circle cx="13.1647" cy="113.1695" r="2.8894" fill="#3e9dac" stroke-width="0"/>
    <circle cx="13.1647" cy="105.5137" r="2.8894" fill="#3e9dac" stroke-width="0"/>
    <rect x="10.2535" y="105.5137" width="5.7789" height="7.6558" fill="#3e9dac" stroke-width="0"/>
    <circle cx="32.226" cy="137.1567" r="2.8894" fill="#3e9dac" stroke-width="0"/>
    <circle cx="32.226" cy="102.8812" r="2.8894" fill="#3e9dac" stroke-width="0"/>
    <rect x="29.3146" y="102.8812" width="5.7789" height="34.2755" fill="#3e9dac" stroke-width="0"/>
    <circle cx="95.6796" cy="137.1633" r="2.8894" fill="#3e9dac" stroke-width="0"/>
    <circle cx="95.6796" cy="102.888" r="2.8894" fill="#3e9dac" stroke-width="0"/>
    <circle cx="105.0988" cy="119.9345" r="2.8894" fill="#3e9dac" stroke-width="0"/>
    <rect x="92.7682" y="102.888" width="5.7789" height="34.2755" fill="#3e9dac" stroke-width="0"/>
    <circle cx="61.3823" cy="143.8955" r="2.8894" fill="#3e9dac" stroke-width="0"/>
    <circle cx="95.6578" cy="143.8955" r="2.8894" fill="#3e9dac" stroke-width="0"/>
    <rect x="61.3823" y="140.9844" width="34.2755" height="5.7789" fill="#3e9dac" stroke-width="0"/>
    <circle cx="95.6906" cy="164.4808" r="2.8894" fill="#3e9dac" stroke-width="0"/>
    <rect x="92.7789" y="143.8948" width="5.7789" height="20.5862" fill="#3e9dac" stroke-width="0"/>
    <circle cx="172.3861" cy="146.6303" r="2.8894" fill="#3e9dac" stroke-width="0"/>
    <circle cx="206.6614" cy="146.6303" r="2.8894" fill="#3e9dac" stroke-width="0"/>
    <rect x="172.3859" y="143.7191" width="34.2755" height="5.7789" fill="#3e9dac" stroke-width="0"/>
    <rect x="172.3859" y="158.2665" width="34.2755" height="5.7789" fill="#3e9dac" stroke-width="0"/>
    <circle cx="206.6944" cy="161.156" r="2.8894" fill="#3e9dac" stroke-width="0"/>
    <rect x="203.7827" y="146.629" width="5.7789" height="14.5266" fill="#3e9dac" stroke-width="0"/>
    <circle cx="172.397" cy="161.156" r="2.8894" fill="#3e9dac" stroke-width="0"/>
    <rect x="169.4854" y="146.629" width="5.7789" height="14.5266" fill="#3e9dac" stroke-width="0"/>
    <circle cx="117.0484" cy="108.0223" r="2.8894" fill="#3e9dac" stroke-width="0"/>
    <circle cx="144.4098" cy="108.0223" r="2.8894" fill="#3e9dac" stroke-width="0"/>
    <circle cx="151.3239" cy="114.9364" r="2.8894" fill="#3e9dac" stroke-width="0"/>
    <circle cx="151.3239" cy="108.0223" r="2.8894" fill="#3e9dac" stroke-width="0"/>
    <rect x="117.0481" y="105.111" width="27.3614" height="5.7789" fill="#3e9dac" stroke-width="0"/>
    <circle cx="151.3566" cy="128.6076" r="2.8894" fill="#3e9dac" stroke-width="0"/>
    <rect x="148.445" y="114.9364" width="5.7789" height="13.671" fill="#3e9dac" stroke-width="0"/>
    <rect x="92.7901" y="117.0448" width="12.3085" height="5.7789" fill="#3e9dac" stroke-width="0"/>
    <circle cx="199.4273" cy="217.257" r="2.8894" fill="#3e9dac" stroke-width="0"/>
    <circle cx="165.1518" cy="217.257" r="2.8894" fill="#3e9dac" stroke-width="0"/>
    <circle cx="178.4868" cy="202.7832" r="2.8894" fill="#3e9dac" stroke-width="0"/>
    <rect x="165.1519" y="214.3895" width="34.2755" height="5.7789" fill="#3e9dac" stroke-width="0"/>
    <rect x="175.5983" y="202.786" width="5.7789" height="17.3853" fill="#3e9dac" stroke-width="0"/>
    <circle cx="153.4497" cy="183.8725" r="2.8894" fill="#3e9dac" stroke-width="0"/>
    <circle cx="153.4497" cy="247.1106" r="2.8894" fill="#3e9dac" stroke-width="0"/>
    <circle cx="139.0066" cy="207.9242" r="2.8894" fill="#3e9dac" stroke-width="0"/>
    <rect x="150.582" y="183.8723" width="5.7789" height="63.2381" fill="#3e9dac" stroke-width="0"/>
    <rect x="139.0064" y="205.0348" width="17.3545" height="5.7789" fill="#3e9dac" stroke-width="0"/>
    <circle cx="109.1897" cy="135.2086" r="2.8894" fill="#3e9dac" stroke-width="0"/>
    <circle cx="159.0692" cy="135.2086" r="2.8894" fill="#3e9dac" stroke-width="0"/>
    <circle cx="134.7989" cy="164.6233" r="2.8894" fill="#3e9dac" stroke-width="0"/>
    <rect x="109.1888" y="132.2954" width="49.8795" height="5.7789" fill="#3e9dac" stroke-width="0"/>
    <circle cx="165.5446" cy="136.3547" r="2.8894" fill="#3e9dac" stroke-width="0"/>
    <circle cx="215.4241" cy="136.3547" r="2.8894" fill="#3e9dac" stroke-width="0"/>
    <rect x="165.5438" y="133.4413" width="49.8795" height="5.7789" fill="#3e9dac" stroke-width="0"/>
    <rect x="131.9115" y="132.3266" width="5.7789" height="32.304" fill="#3e9dac" stroke-width="0"/>
    <circle cx="104.7875" cy="236.8458" r="2.8894" fill="#3e9dac" stroke-width="0"/>
    <circle cx="54.908" cy="236.8455" r="2.8894" fill="#3e9dac" stroke-width="0"/>
    <circle cx="79.2537" cy="220.4231" r="2.8894" fill="#3e9dac" stroke-width="0"/>
    <rect x="54.9086" y="233.9801" width="49.8795" height="5.7789" fill="#3e9dac" stroke-width="0"/>
    <rect x="76.3609" y="220.4242" width="5.7789" height="19.3063" fill="#3e9dac" stroke-width="0"/>
    <rect x="29.9275" y="117.1298" width="17.0067" height="5.7789" fill="#3e9dac" stroke-width="0"/>
    <circle cx="44.5749" cy="138.138" r="2.8894" fill="#3e9dac" stroke-width="0"/>
    <circle cx="44.5749" cy="102.8812" r="2.8894" fill="#3e9dac" stroke-width="0"/>
    <rect x="41.6635" y="102.8812" width="5.7789" height="35.2568" fill="#3e9dac" stroke-width="0"/>
    <circle cx="80.6715" cy="107.8011" r="2.8894" fill="#3e9dac" stroke-width="0"/>
    <circle cx="73.7577" cy="107.8011" r="2.8894" fill="#3e9dac" stroke-width="0"/>
    <circle cx="56.41" cy="107.8011" r="2.8894" fill="#3e9dac" stroke-width="0"/>
    <rect x="56.4102" y="104.9332" width="17.3475" height="5.7789" fill="#3e9dac" stroke-width="0"/>
    <circle cx="97.346" cy="211.9074" r="2.8894" fill="#3e9dac" stroke-width="0"/>
    <circle cx="63.0705" cy="211.9074" r="2.8894" fill="#3e9dac" stroke-width="0"/>
    <circle cx="63.0705" cy="204.9934" r="2.8894" fill="#3e9dac" stroke-width="0"/>
    <circle cx="69.9845" cy="211.9293" r="2.8894" fill="#3e9dac" stroke-width="0"/>
    <rect x="69.9845" y="209.04" width="27.3614" height="5.7789" fill="#3e9dac" stroke-width="0"/>
    <circle cx="97.346" cy="191.3112" r="2.8894" fill="#3e9dac" stroke-width="0"/>
    <rect x="63.0705" y="188.4437" width="34.2755" height="5.7789" fill="#3e9dac" stroke-width="0"/>
    <circle cx="63.0375" cy="191.3222" r="2.8894" fill="#3e9dac" stroke-width="0"/>
    <rect x="60.1702" y="191.3222" width="5.7789" height="13.671" fill="#3e9dac" stroke-width="0"/>
    <circle cx="172.2545" cy="105.3522" r="2.8894" fill="#3e9dac" stroke-width="0"/>
    <circle cx="206.53" cy="105.3522" r="2.8894" fill="#3e9dac" stroke-width="0"/>
    <rect x="172.2545" y="102.4409" width="34.3083" height="5.7789" fill="#3e9dac" stroke-width="0"/>
    <circle cx="172.2545" cy="126.3674" r="2.8894" fill="#3e9dac" stroke-width="0"/>
    <circle cx="206.53" cy="126.3674" r="2.8894" fill="#3e9dac" stroke-width="0"/>
    <rect x="172.2545" y="123.4559" width="34.3083" height="5.7789" fill="#3e9dac" stroke-width="0"/>
    <circle cx="172.2545" cy="115.8599" r="2.8894" fill="#3e9dac" stroke-width="0"/>
    <circle cx="179.1686" cy="115.8599" r="2.8894" fill="#3e9dac" stroke-width="0"/>
    <circle cx="172.2545" cy="122.7703" r="2.8894" fill="#3e9dac" stroke-width="0"/>
    <rect x="179.1688" y="112.9486" width="27.3942" height="5.7789" fill="#3e9dac" stroke-width="0"/>
    <circle cx="206.5628" cy="115.8483" r="2.8894" fill="#3e9dac" stroke-width="0"/>
    <rect x="203.6512" y="105.352" width="5.7789" height="10.4964" fill="#3e9dac" stroke-width="0"/>
    <rect x="169.3649" y="122.7703" width="5.7789" height="3.5858" fill="#3e9dac" stroke-width="0"/>
    <circle cx="77.4256" cy="113.9057" r="2.8894" fill="#3e9dac" stroke-width="0"/>
    <circle cx="65.6718" cy="136.0118" r="2.8894" fill="#3e9dac" stroke-width="0"/>
    <rect x="59.0499" y="122.0792" width="25.0363" height="5.7789" transform="translate(-72.3719 129.4903) rotate(-62)" fill="#3e9dac" stroke-width="0"/>
    <circle cx="9.1992" cy="125.7474" r="2.8894" fill="#3e9dac" stroke-width="0"/>
    <circle cx="2.8896" cy="134.7578" r="2.8894" fill="#3e9dac" stroke-width="0"/>
    <rect x=".5622" y="127.3757" width="11" height="5.7789" transform="translate(-104.1219 60.514) rotate(-55)" fill="#3e9dac" stroke-width="0"/>
    <circle cx="17.7009" cy="125.3017" r="2.8894" fill="#3e9dac" stroke-width="0"/>
    <circle cx="24.9174" cy="133.6034" r="2.8894" fill="#3e9dac" stroke-width="0"/>
    <rect x="18.4362" y="123.9382" width="5.7789" height="11" transform="translate(-79.6882 45.7408) rotate(-41)" fill="#3e9dac" stroke-width="0"/>
    <circle cx="126.4279" cy="210.8138" r="2.8894" fill="#3e9dac" stroke-width="0"/>
    <circle cx="126.4279" cy="203.8997" r="2.8894" fill="#3e9dac" stroke-width="0"/>
    <circle cx="126.4279" cy="196.244" r="2.8894" fill="#3e9dac" stroke-width="0"/>
    <rect x="123.5167" y="196.244" width="5.7789" height="7.6558" fill="#3e9dac" stroke-width="0"/>
    <circle cx="122.4621" cy="216.4774" r="2.8894" fill="#3e9dac" stroke-width="0"/>
    <circle cx="116.1527" cy="225.4881" r="2.8894" fill="#3e9dac" stroke-width="0"/>
    <rect x="113.8254" y="218.1057" width="11" height="5.7789" transform="translate(-130.1455 191.9832) rotate(-55)" fill="#3e9dac" stroke-width="0"/>
    <circle cx="130.964" cy="216.0317" r="2.8894" fill="#3e9dac" stroke-width="0"/>
    <circle cx="138.1807" cy="224.3339" r="2.8894" fill="#3e9dac" stroke-width="0"/>
    <rect x="131.6992" y="214.6686" width="5.7789" height="11" transform="translate(-111.4303 142.3033) rotate(-41)" fill="#3e9dac" stroke-width="0"/>
    <path d="M28.6048,147.2445c7.5447,0,12.55,3.6852,12.55,6.123s-5.0053,6.123-12.55,6.123-12.5505-3.6852-12.5505-6.123,5.0053-6.123,12.5505-6.123M28.6048,141.4658c-10.123,0-18.3296,5.3286-18.3296,11.9019s8.2068,11.9019,18.3296,11.9019,18.3292-5.3286,18.3292-11.9019-8.2062-11.9019-18.3292-11.9019h0Z" fill="#3e9dac" stroke-width="0"/>
    <circle cx="167.2671" cy="191.4168" r="2.8894" fill="#3e9dac" stroke-width="0"/>
    <circle cx="192.8112" cy="191.4168" r="2.8894" fill="#3e9dac" stroke-width="0"/>
    <circle cx="192.8112" cy="198.3309" r="2.8894" fill="#3e9dac" stroke-width="0"/>
    <circle cx="185.8971" cy="191.4168" r="2.8894" fill="#3e9dac" stroke-width="0"/>
    <rect x="167.2669" y="188.5055" width="18.63" height="5.7789" fill="#3e9dac" stroke-width="0"/>
    <circle cx="192.8439" cy="209.1127" r="2.8894" fill="#3e9dac" stroke-width="0"/>
    <rect x="189.9323" y="198.3307" width="5.7789" height="10.7816" fill="#3e9dac" stroke-width="0"/>
    <circle cx="206.2839" cy="231.3952" r="2.8894" fill="#3e9dac" stroke-width="0"/>
    <circle cx="206.2839" cy="184.0367" r="2.8894" fill="#3e9dac" stroke-width="0"/>
    <circle cx="215.703" cy="207.2656" r="2.8894" fill="#3e9dac" stroke-width="0"/>
    <rect x="203.3724" y="184.0367" width="5.7789" height="47.3585" fill="#3e9dac" stroke-width="0"/>
    <rect x="203.3943" y="204.3761" width="12.3085" height="5.7789" fill="#3e9dac" stroke-width="0"/>
    <circle cx="209.0963" cy="243.6027" r="2.8894" fill="#3e9dac" stroke-width="0"/>
    <circle cx="174.8208" cy="243.6027" r="2.8894" fill="#3e9dac" stroke-width="0"/>
    <rect x="174.788" y="240.7352" width="34.3083" height="5.7789" fill="#3e9dac" stroke-width="0"/>
    <circle cx="174.788" cy="227.1475" r="2.8894" fill="#3e9dac" stroke-width="0"/>
    <rect x="171.9207" y="227.1479" width="5.7789" height="16.4771" fill="#3e9dac" stroke-width="0"/>
  </g>
  <g>
    <circle cx="286.9203" cy="137.6154" r="6.2264" fill="#3e9dac" stroke-width="0"/>
    <circle cx="286.9203" cy="122.716" r="6.2264" fill="#3e9dac" stroke-width="0"/>
    <circle cx="286.9203" cy="106.2183" r="6.2264" fill="#3e9dac" stroke-width="0"/>
    <rect x="280.6469" y="106.2183" width="12.4532" height="16.4977" fill="#3e9dac" stroke-width="0"/>
    <circle cx="278.3748" cy="149.8205" r="6.2264" fill="#3e9dac" stroke-width="0"/>
    <circle cx="264.7781" cy="169.2376" r="6.2264" fill="#3e9dac" stroke-width="0"/>
    <rect x="259.7627" y="153.3296" width="23.7043" height="12.4532" transform="translate(-14.8778 290.5324) rotate(-55)" fill="#3e9dac" stroke-width="0"/>
    <circle cx="296.6956" cy="148.8602" r="6.2264" fill="#3e9dac" stroke-width="0"/>
    <circle cx="312.2467" cy="166.7498" r="6.2264" fill="#3e9dac" stroke-width="0"/>
    <rect x="298.28" y="145.922" width="12.4532" height="23.7043" transform="translate(-28.8166 238.4748) rotate(-41)" fill="#3e9dac" stroke-width="0"/>
  </g>
  <rect x="104.2959" width="10.0005" height="80.0043" fill="#3e9dac" stroke-width="0"/>
  <rect x="104.4076" width="187.513" height="10.0005" fill="#3e9dac" stroke-width="0"/>
  <rect x="281.9201" width="10.0005" height="80.0043" fill="#3e9dac" stroke-width="0"/>
  <g>
    <rect x="274.8486" y="60.644" width="10.0005" height="30.0016" transform="translate(28.4769 220.0389) rotate(-45)" fill="#3e9dac" stroke-width="0"/>
    <rect x="278.991" y="70.6444" width="30.0016" height="10.0005" transform="translate(32.6194 230.0394) rotate(-45)" fill="#3e9dac" stroke-width="0"/>
  </g>
</svg>