<?xml version="1.0" encoding="UTF-8"?>
<svg id="Layer_1" data-name="Layer 1" xmlns="http://www.w3.org/2000/svg" version="1.1" viewBox="0 0 26 26">
  <rect width="26" height="26" rx="5" ry="5" fill="#e9e9e9" stroke-width="0"/>
  <g>
    <circle cx="10.7455" cy="14.9455" r=".5197" fill="#f5a0b3" stroke-width="0"/>
    <circle cx="15.2546" cy="14.9455" r=".5197" fill="#f5a0b3" stroke-width="0"/>
    <ellipse cx="13" cy="17.7219" rx="1.2127" ry=".964" fill="#f5a0b3" stroke-width="0"/>
    <path d="M12.3703,19.4352c-.4131,0-.7493-.3361-.7493-.7494,0-.0661.0535-.1196.1196-.1196s.1196.0535.1196.1196c0,.2812.2288.5101.51.5101s.5101-.2289.5101-.5101c0-.0661.0535-.1196.1196-.1196s.1196.0535.1196.1196c0,.4133-.3361.7494-.7494.7494Z" fill="#f5a0b3" stroke-width="0"/>
    <path d="M13.6297,19.4352c-.4131,0-.7493-.3361-.7493-.7494,0-.0661.0535-.1196.1196-.1196s.1196.0535.1196.1196c0,.2812.2288.5101.51.5101s.51-.2289.51-.5101c0-.0661.0535-.1196.1196-.1196s.1196.0535.1196.1196c0,.4133-.3361.7494-.7493.7494Z" fill="#f5a0b3" stroke-width="0"/>
    <path d="M13.0001,23c-4.1547,0-7.5349-3.3802-7.5349-7.5349,0-1.3791.3753-2.7222,1.0874-3.8973-1.2333-.1229-2.1087-.6805-2.1087-1.3632,0-.7788,1.1452-1.3888,2.6072-1.3888.6698,0,1.2995.1312,1.7827.3706.3047-.2024.6307-.3851.9709-.5446l-.253-1.3998c-.0266-.0064-.0523-.014-.0775-.0231l-2.6892-.9764c-.1935-.0703-.3481-.2117-.4351-.3982-.0872-.1865-.0965-.3957-.0263-.5891.0703-.1935.2117-.3481.3982-.4351.1866-.087.3958-.096.5891-.0263l1.9248.6989-.2865-1.585c-.0755-.418.2032-.8196.6212-.8953.2025-.0362.4072.0079.5764.1252.1691.1173.2824.2935.319.4961l.8122,4.4952c1.1263-.2635,2.3167-.2638,3.444-.0001l.8122-4.495c.0758-.4182.4773-.6962.8953-.6213.418.0757.6967.4773.6212.8953l-.2865,1.585,1.9249-.6989c.1932-.0701.4023-.0609.589.0263.1865.087.3278.2416.3982.4351.145.3993-.0619.8423-.4614.9873l-2.6892.9764c-.0251.009-.0508.0167-.0775.0231l-.253,1.3998c.3403.1595.6663.3422.9709.5446.4834-.2394,1.1129-.3706,1.7827-.3706,1.462,0,2.6072.61,2.6072,1.3888,0,.6828-.8753,1.2403-2.1087,1.3632.7121,1.1751,1.0874,2.5182,1.0874,3.8973,0,4.1547-3.3801,7.5349-7.5348,7.5349ZM7.0511,9.055c-1.2836,0-2.3679.5265-2.3679,1.1496,0,.5693.9146,1.0702,2.0821,1.1402l.2039.0122-.1103.1719c-.7552,1.1757-1.1545,2.5369-1.1545,3.9363,0,4.0228,3.2728,7.2956,7.2956,7.2956s7.2955-3.2728,7.2955-7.2956c0-1.3995-.3992-2.7606-1.1545-3.9363l-.1103-.1719.2039-.0122c1.1675-.07,2.0821-.5709,2.0821-1.1402,0-.6231-1.0844-1.1496-2.3679-1.1496-.6615,0-1.2777.1334-1.7349.3756l-.0636.0336-.0596-.0404c-.3352-.2274-.6983-.4304-1.0792-.6033l-.0849-.0384.3164-1.7506.087-.0111c.0421-.0054.0793-.014.114-.0266l2.6892-.9764c.1333-.0484.2399-.1458.2999-.2744.0601-.1285.0665-.2728.018-.4062-.0484-.1333-.1458-.2399-.2744-.2999-.1285-.0598-.2728-.0662-.406-.0181l-2.3159.8409.3603-1.9944c.0521-.2882-.14-.5651-.4282-.6172-.2888-.052-.5651.1401-.6172.4283l-.8577,4.7461-.1242-.0313c-1.167-.294-2.4095-.2941-3.5758.0001l-.1242.0313-.8577-4.7462c-.052-.2882-.3298-.48-.6172-.4283-.2882.0521-.4803.329-.4282.6172l.3603,1.9944-2.3157-.8408c-.1338-.0486-.2777-.0422-.4062.018-.1286.0601-.2261.1666-.2744.2999-.0485.1334-.0421.2777.018.4062.0601.1286.1666.2261.2999.2744l2.6892.9764c.0347.0126.0721.0213.114.0266l.087.0111.3163,1.7506-.0848.0384c-.3808.1729-.7439.376-1.0792.6033l-.0596.0404-.0636-.0336c-.4572-.2422-1.0734-.3756-1.7349-.3756Z" fill="#f5a0b3" stroke-width="0"/>
  </g>
</svg>