<?xml version="1.0" encoding="UTF-8"?>
<svg id="Layer_1" data-name="Layer 1" xmlns="http://www.w3.org/2000/svg" version="1.1" viewBox="0 0 26 26">
  <rect width="26" height="26" rx="5" ry="5" fill="#e9e9e9" stroke-width="0"/>
  <g>
    <circle cx="10.0768" cy="12.5567" r=".6738" fill="#e7723a" stroke-width="0"/>
    <circle cx="15.9231" cy="12.5567" r=".6738" fill="#e7723a" stroke-width="0"/>
    <ellipse cx="13" cy="16.1565" rx="1.5724" ry="1.2498" fill="#e7723a" stroke-width="0"/>
    <path d="M12.1835,18.3778c-.5357,0-.9716-.4358-.9716-.9715,0-.0857.0694-.1551.1551-.1551s.1551.0694.1551.1551c0,.3646.2966.6612.6614.6612s.6614-.2966.6614-.6612c0-.0857.0694-.1551.1551-.1551s.1551.0694.1551.1551c0,.5357-.436.9715-.9716.9715Z" fill="#e7723a" stroke-width="0"/>
    <path d="M13.8165,18.3778c-.5357,0-.9716-.4358-.9716-.9715,0-.0857.0694-.1551.1551-.1551s.1551.0694.1551.1551c0,.3646.2966.6612.6614.6612.3645,0,.6611-.2966.6611-.6612,0-.0857.0694-.1551.1551-.1551s.1551.0694.1551.1551c0,.5357-.4357.9715-.9713.9715Z" fill="#e7723a" stroke-width="0"/>
    <path d="M13,23c-5.3869,0-9.7694-4.3827-9.7694-9.7695,0-1.8631.5257-3.6695,1.5215-5.2352-.8389-.4752-1.3531-1.3497-1.3531-2.322,0-1.4741,1.1992-2.6733,2.6731-2.6733,1.0401,0,1.9942.6191,2.4268,1.5574,1.3819-.7179,2.934-1.0965,4.501-1.0965s3.1191.3786,4.5007,1.0965c.4326-.9383,1.3867-1.5574,2.4268-1.5574,1.4743,0,2.6734,1.1992,2.6734,2.6733,0,.9721-.5141,1.8468-1.3531,2.3221.9959,1.5658,1.5215,3.3721,1.5215,5.2351,0,5.3869-4.3825,9.7695-9.7694,9.7695ZM6.0722,3.3102c-1.3028,0-2.3629,1.0601-2.3629,2.363,0,.9109.5108,1.7248,1.3334,2.1243l.1591.0774-.0976.1477c-1.0228,1.5476-1.5633,3.3485-1.5633,5.2078,0,5.2158,4.2434,9.4593,9.4591,9.4593s9.4591-4.2434,9.4591-9.4593c0-1.8593-.5405-3.6601-1.5633-5.2077l-.0976-.1477.1591-.0774c.8226-.3996,1.3334-1.2137,1.3334-2.1244,0-1.3029-1.0601-2.363-2.3632-2.363-.9707,0-1.8569.6105-2.205,1.5191l-.0633.1653-.1554-.0844c-1.3737-.7452-2.931-1.139-4.5037-1.139s-3.13.3939-4.504,1.139l-.1554.0844-.0633-.1653c-.3481-.9086-1.2343-1.5191-2.205-1.5191Z" fill="#e7723a" stroke-width="0"/>
  </g>
</svg>